<svg width="503" height="410" viewBox="0 0 503 410" fill="none" xmlns="http://www.w3.org/2000/svg">
<path d="M478.933 362.069C491.34 336.035 480.293 304.872 454.259 292.465C428.225 280.058 397.062 291.105 384.655 317.139C372.248 343.173 383.295 374.336 409.329 386.743C435.363 399.15 466.526 388.103 478.933 362.069Z" fill="black"/>
<g opacity="0.7">
<g opacity="0.7">
<path opacity="0.7" d="M1.39999 197.7C2.17319 197.7 2.79999 197.073 2.79999 196.3C2.79999 195.527 2.17319 194.9 1.39999 194.9C0.626795 194.9 0 195.527 0 196.3C0 197.073 0.626795 197.7 1.39999 197.7Z" fill="black"/>
<path opacity="0.7" d="M13.9601 197.7C14.7333 197.7 15.3601 197.073 15.3601 196.3C15.3601 195.527 14.7333 194.9 13.9601 194.9C13.1869 194.9 12.5601 195.527 12.5601 196.3C12.5601 197.073 13.1869 197.7 13.9601 197.7Z" fill="black"/>
<path opacity="0.7" d="M26.5299 197.7C27.3031 197.7 27.9299 197.073 27.9299 196.3C27.9299 195.527 27.3031 194.9 26.5299 194.9C25.7567 194.9 25.1299 195.527 25.1299 196.3C25.1299 197.073 25.7567 197.7 26.5299 197.7Z" fill="black"/>
<path opacity="0.7" d="M39.0899 197.7C39.8631 197.7 40.4899 197.073 40.4899 196.3C40.4899 195.527 39.8631 194.9 39.0899 194.9C38.3167 194.9 37.6899 195.527 37.6899 196.3C37.6899 197.073 38.3167 197.7 39.0899 197.7Z" fill="black"/>
<path opacity="0.7" d="M51.6598 197.7C52.433 197.7 53.0598 197.073 53.0598 196.3C53.0598 195.527 52.433 194.9 51.6598 194.9C50.8866 194.9 50.2598 195.527 50.2598 196.3C50.2598 197.073 50.8866 197.7 51.6598 197.7Z" fill="black"/>
<path opacity="0.7" d="M65.6198 196.3C65.6198 197.07 64.9898 197.7 64.2198 197.7C63.4498 197.7 62.8198 197.08 62.8198 196.3C62.8198 195.53 63.4498 194.9 64.2198 194.9C64.9898 194.9 65.6198 195.52 65.6198 196.3Z" fill="black"/>
<path opacity="0.7" d="M76.7799 197.7C77.5531 197.7 78.1799 197.073 78.1799 196.3C78.1799 195.527 77.5531 194.9 76.7799 194.9C76.0067 194.9 75.3799 195.527 75.3799 196.3C75.3799 197.073 76.0067 197.7 76.7799 197.7Z" fill="black"/>
<path opacity="0.7" d="M90.7399 196.3C90.7399 197.07 90.1099 197.7 89.3399 197.7C88.5699 197.7 87.9399 197.08 87.9399 196.3C87.9399 195.53 88.5699 194.9 89.3399 194.9C90.1199 194.9 90.7399 195.52 90.7399 196.3Z" fill="black"/>
<path opacity="0.7" d="M101.91 197.7C102.683 197.7 103.31 197.073 103.31 196.3C103.31 195.527 102.683 194.9 101.91 194.9C101.137 194.9 100.51 195.527 100.51 196.3C100.51 197.073 101.137 197.7 101.91 197.7Z" fill="black"/>
<path opacity="0.7" d="M115.87 196.3C115.87 197.07 115.24 197.7 114.47 197.7C113.7 197.7 113.07 197.08 113.07 196.3C113.07 195.53 113.7 194.9 114.47 194.9C115.25 194.9 115.87 195.52 115.87 196.3Z" fill="black"/>
<path opacity="0.7" d="M127.04 197.7C127.813 197.7 128.44 197.073 128.44 196.3C128.44 195.527 127.813 194.9 127.04 194.9C126.267 194.9 125.64 195.527 125.64 196.3C125.64 197.073 126.267 197.7 127.04 197.7Z" fill="black"/>
</g>
<g opacity="0.7">
<path opacity="0.7" d="M1.39999 208.86C2.17319 208.86 2.79999 208.233 2.79999 207.46C2.79999 206.687 2.17319 206.06 1.39999 206.06C0.626795 206.06 0 206.687 0 207.46C0 208.233 0.626795 208.86 1.39999 208.86Z" fill="black"/>
<path opacity="0.7" d="M13.9601 208.86C14.7333 208.86 15.3601 208.233 15.3601 207.46C15.3601 206.687 14.7333 206.06 13.9601 206.06C13.1869 206.06 12.5601 206.687 12.5601 207.46C12.5601 208.233 13.1869 208.86 13.9601 208.86Z" fill="black"/>
<path opacity="0.7" d="M26.5299 208.86C27.3031 208.86 27.9299 208.233 27.9299 207.46C27.9299 206.687 27.3031 206.06 26.5299 206.06C25.7567 206.06 25.1299 206.687 25.1299 207.46C25.1299 208.233 25.7567 208.86 26.5299 208.86Z" fill="black"/>
<path opacity="0.7" d="M39.0899 208.86C39.8631 208.86 40.4899 208.233 40.4899 207.46C40.4899 206.687 39.8631 206.06 39.0899 206.06C38.3167 206.06 37.6899 206.687 37.6899 207.46C37.6899 208.233 38.3167 208.86 39.0899 208.86Z" fill="black"/>
<path opacity="0.7" d="M51.6598 208.86C52.433 208.86 53.0598 208.233 53.0598 207.46C53.0598 206.687 52.433 206.06 51.6598 206.06C50.8866 206.06 50.2598 206.687 50.2598 207.46C50.2598 208.233 50.8866 208.86 51.6598 208.86Z" fill="black"/>
<path opacity="0.7" d="M65.6198 207.46C65.6198 208.23 64.9898 208.86 64.2198 208.86C63.4498 208.86 62.8198 208.24 62.8198 207.46C62.8198 206.69 63.4498 206.06 64.2198 206.06C64.9898 206.07 65.6198 206.69 65.6198 207.46Z" fill="black"/>
<path opacity="0.7" d="M76.7799 208.86C77.5531 208.86 78.1799 208.233 78.1799 207.46C78.1799 206.687 77.5531 206.06 76.7799 206.06C76.0067 206.06 75.3799 206.687 75.3799 207.46C75.3799 208.233 76.0067 208.86 76.7799 208.86Z" fill="black"/>
<path opacity="0.7" d="M90.7399 207.46C90.7399 208.23 90.1099 208.86 89.3399 208.86C88.5699 208.86 87.9399 208.24 87.9399 207.46C87.9399 206.69 88.5699 206.06 89.3399 206.06C90.1199 206.07 90.7399 206.69 90.7399 207.46Z" fill="black"/>
<path opacity="0.7" d="M101.91 208.86C102.683 208.86 103.31 208.233 103.31 207.46C103.31 206.687 102.683 206.06 101.91 206.06C101.137 206.06 100.51 206.687 100.51 207.46C100.51 208.233 101.137 208.86 101.91 208.86Z" fill="black"/>
<path opacity="0.7" d="M115.87 207.46C115.87 208.23 115.24 208.86 114.47 208.86C113.7 208.86 113.07 208.24 113.07 207.46C113.07 206.69 113.7 206.06 114.47 206.06C115.25 206.07 115.87 206.69 115.87 207.46Z" fill="black"/>
<path opacity="0.7" d="M127.04 208.86C127.813 208.86 128.44 208.233 128.44 207.46C128.44 206.687 127.813 206.06 127.04 206.06C126.267 206.06 125.64 206.687 125.64 207.46C125.64 208.233 126.267 208.86 127.04 208.86Z" fill="black"/>
</g>
<g opacity="0.7">
<path opacity="0.7" d="M2.79999 218.63C2.79999 219.4 2.16999 220.03 1.39999 220.03C0.629994 220.03 0 219.4 0 218.63C0 217.86 0.619994 217.23 1.39999 217.23C2.16999 217.24 2.79999 217.86 2.79999 218.63Z" fill="black"/>
<path opacity="0.7" d="M15.3601 218.63C15.3601 219.4 14.7401 220.03 13.9601 220.03C13.1901 220.03 12.5601 219.4 12.5601 218.63C12.5601 217.86 13.1901 217.23 13.9601 217.23C14.7401 217.24 15.3601 217.86 15.3601 218.63Z" fill="black"/>
<path opacity="0.7" d="M27.9201 218.63C27.9201 219.4 27.2901 220.03 26.5201 220.03C25.7501 220.03 25.1201 219.4 25.1201 218.63C25.1201 217.86 25.7401 217.23 26.5201 217.23C27.3001 217.24 27.9201 217.86 27.9201 218.63Z" fill="black"/>
<path opacity="0.7" d="M40.4899 218.63C40.4899 219.4 39.8699 220.03 39.0899 220.03C38.3199 220.03 37.6899 219.4 37.6899 218.63C37.6899 217.86 38.3199 217.23 39.0899 217.23C39.8599 217.24 40.4899 217.86 40.4899 218.63Z" fill="black"/>
<path opacity="0.7" d="M53.05 218.63C53.05 219.4 52.42 220.03 51.65 220.03C50.88 220.03 50.25 219.4 50.25 218.63C50.25 217.86 50.87 217.23 51.65 217.23C52.43 217.24 53.05 217.86 53.05 218.63Z" fill="black"/>
<path opacity="0.7" d="M65.6198 218.63C65.6198 219.4 64.9898 220.03 64.2198 220.03C63.4498 220.03 62.8198 219.4 62.8198 218.63C62.8198 217.86 63.4498 217.23 64.2198 217.23C64.9898 217.24 65.6198 217.86 65.6198 218.63Z" fill="black"/>
<path opacity="0.7" d="M78.1799 218.63C78.1799 219.4 77.5499 220.03 76.7799 220.03C76.0099 220.03 75.3799 219.4 75.3799 218.63C75.3799 217.86 75.9999 217.23 76.7799 217.23C77.5499 217.24 78.1799 217.86 78.1799 218.63Z" fill="black"/>
<path opacity="0.7" d="M90.7399 218.63C90.7399 219.4 90.1099 220.03 89.3399 220.03C88.5699 220.03 87.9399 219.4 87.9399 218.63C87.9399 217.86 88.5699 217.23 89.3399 217.23C90.1199 217.24 90.7399 217.86 90.7399 218.63Z" fill="black"/>
<path opacity="0.7" d="M103.31 218.63C103.31 219.4 102.68 220.03 101.91 220.03C101.14 220.03 100.51 219.4 100.51 218.63C100.51 217.86 101.13 217.23 101.91 217.23C102.68 217.24 103.31 217.86 103.31 218.63Z" fill="black"/>
<path opacity="0.7" d="M115.87 218.63C115.87 219.4 115.24 220.03 114.47 220.03C113.7 220.03 113.07 219.4 113.07 218.63C113.07 217.86 113.7 217.23 114.47 217.23C115.25 217.24 115.87 217.86 115.87 218.63Z" fill="black"/>
<path opacity="0.7" d="M128.44 218.63C128.44 219.4 127.82 220.03 127.04 220.03C126.26 220.03 125.64 219.4 125.64 218.63C125.64 217.86 126.26 217.23 127.04 217.23C127.82 217.23 128.44 217.86 128.44 218.63Z" fill="black"/>
</g>
<g opacity="0.7">
<path opacity="0.7" d="M2.79999 229.8C2.79999 230.57 2.16999 231.2 1.39999 231.2C0.629994 231.2 0 230.58 0 229.8C0 229.03 0.619994 228.4 1.39999 228.4C2.16999 228.4 2.79999 229.03 2.79999 229.8Z" fill="black"/>
<path opacity="0.7" d="M15.3601 229.8C15.3601 230.57 14.7401 231.2 13.9601 231.2C13.1901 231.2 12.5601 230.58 12.5601 229.8C12.5601 229.03 13.1901 228.4 13.9601 228.4C14.7401 228.4 15.3601 229.03 15.3601 229.8Z" fill="black"/>
<path opacity="0.7" d="M27.9201 229.8C27.9201 230.57 27.2901 231.2 26.5201 231.2C25.7501 231.2 25.1201 230.58 25.1201 229.8C25.1201 229.03 25.7401 228.4 26.5201 228.4C27.3001 228.4 27.9201 229.03 27.9201 229.8Z" fill="black"/>
<path opacity="0.7" d="M40.4899 229.8C40.4899 230.57 39.8699 231.2 39.0899 231.2C38.3199 231.2 37.6899 230.58 37.6899 229.8C37.6899 229.03 38.3199 228.4 39.0899 228.4C39.8599 228.4 40.4899 229.03 40.4899 229.8Z" fill="black"/>
<path opacity="0.7" d="M53.05 229.8C53.05 230.57 52.42 231.2 51.65 231.2C50.88 231.2 50.25 230.58 50.25 229.8C50.25 229.03 50.87 228.4 51.65 228.4C52.43 228.4 53.05 229.03 53.05 229.8Z" fill="black"/>
<path opacity="0.7" d="M65.6198 229.8C65.6198 230.57 64.9898 231.2 64.2198 231.2C63.4498 231.2 62.8198 230.58 62.8198 229.8C62.8198 229.03 63.4498 228.4 64.2198 228.4C64.9898 228.4 65.6198 229.03 65.6198 229.8Z" fill="black"/>
<path opacity="0.7" d="M78.1799 229.8C78.1799 230.57 77.5499 231.2 76.7799 231.2C76.0099 231.2 75.3799 230.58 75.3799 229.8C75.3799 229.03 75.9999 228.4 76.7799 228.4C77.5499 228.4 78.1799 229.03 78.1799 229.8Z" fill="black"/>
<path opacity="0.7" d="M90.7399 229.8C90.7399 230.57 90.1099 231.2 89.3399 231.2C88.5699 231.2 87.9399 230.58 87.9399 229.8C87.9399 229.03 88.5699 228.4 89.3399 228.4C90.1199 228.4 90.7399 229.03 90.7399 229.8Z" fill="black"/>
<path opacity="0.7" d="M103.31 229.8C103.31 230.57 102.68 231.2 101.91 231.2C101.14 231.2 100.51 230.58 100.51 229.8C100.51 229.03 101.13 228.4 101.91 228.4C102.68 228.4 103.31 229.03 103.31 229.8Z" fill="black"/>
<path opacity="0.7" d="M115.87 229.8C115.87 230.57 115.24 231.2 114.47 231.2C113.7 231.2 113.07 230.58 113.07 229.8C113.07 229.03 113.7 228.4 114.47 228.4C115.25 228.4 115.87 229.03 115.87 229.8Z" fill="black"/>
<path opacity="0.7" d="M128.44 229.8C128.44 230.57 127.82 231.2 127.04 231.2C126.26 231.2 125.64 230.58 125.64 229.8C125.64 229.03 126.26 228.4 127.04 228.4C127.82 228.4 128.44 229.03 128.44 229.8Z" fill="black"/>
</g>
<g opacity="0.7">
<path opacity="0.7" d="M1.39999 242.37C2.17319 242.37 2.79999 241.743 2.79999 240.97C2.79999 240.197 2.17319 239.57 1.39999 239.57C0.626795 239.57 0 240.197 0 240.97C0 241.743 0.626795 242.37 1.39999 242.37Z" fill="black"/>
<path opacity="0.7" d="M13.9601 242.37C14.7333 242.37 15.3601 241.743 15.3601 240.97C15.3601 240.197 14.7333 239.57 13.9601 239.57C13.1869 239.57 12.5601 240.197 12.5601 240.97C12.5601 241.743 13.1869 242.37 13.9601 242.37Z" fill="black"/>
<path opacity="0.7" d="M26.5299 242.37C27.3031 242.37 27.9299 241.743 27.9299 240.97C27.9299 240.197 27.3031 239.57 26.5299 239.57C25.7567 239.57 25.1299 240.197 25.1299 240.97C25.1299 241.743 25.7567 242.37 26.5299 242.37Z" fill="black"/>
<path opacity="0.7" d="M39.0899 242.37C39.8631 242.37 40.4899 241.743 40.4899 240.97C40.4899 240.197 39.8631 239.57 39.0899 239.57C38.3167 239.57 37.6899 240.197 37.6899 240.97C37.6899 241.743 38.3167 242.37 39.0899 242.37Z" fill="black"/>
<path opacity="0.7" d="M51.6598 242.37C52.433 242.37 53.0598 241.743 53.0598 240.97C53.0598 240.197 52.433 239.57 51.6598 239.57C50.8866 239.57 50.2598 240.197 50.2598 240.97C50.2598 241.743 50.8866 242.37 51.6598 242.37Z" fill="black"/>
<path opacity="0.7" d="M65.6198 240.97C65.6198 241.74 64.9898 242.37 64.2198 242.37C63.4498 242.37 62.8198 241.75 62.8198 240.97C62.8198 240.19 63.4498 239.57 64.2198 239.57C64.9898 239.57 65.6198 240.2 65.6198 240.97Z" fill="black"/>
<path opacity="0.7" d="M76.7799 242.37C77.5531 242.37 78.1799 241.743 78.1799 240.97C78.1799 240.197 77.5531 239.57 76.7799 239.57C76.0067 239.57 75.3799 240.197 75.3799 240.97C75.3799 241.743 76.0067 242.37 76.7799 242.37Z" fill="black"/>
<path opacity="0.7" d="M90.7399 240.97C90.7399 241.74 90.1099 242.37 89.3399 242.37C88.5699 242.37 87.9399 241.75 87.9399 240.97C87.9399 240.19 88.5699 239.57 89.3399 239.57C90.1199 239.57 90.7399 240.2 90.7399 240.97Z" fill="black"/>
<path opacity="0.7" d="M101.91 242.37C102.683 242.37 103.31 241.743 103.31 240.97C103.31 240.197 102.683 239.57 101.91 239.57C101.137 239.57 100.51 240.197 100.51 240.97C100.51 241.743 101.137 242.37 101.91 242.37Z" fill="black"/>
<path opacity="0.7" d="M115.87 240.97C115.87 241.74 115.24 242.37 114.47 242.37C113.7 242.37 113.07 241.75 113.07 240.97C113.07 240.19 113.7 239.57 114.47 239.57C115.25 239.57 115.87 240.2 115.87 240.97Z" fill="black"/>
<path opacity="0.7" d="M127.04 242.37C127.813 242.37 128.44 241.743 128.44 240.97C128.44 240.197 127.813 239.57 127.04 239.57C126.267 239.57 125.64 240.197 125.64 240.97C125.64 241.743 126.267 242.37 127.04 242.37Z" fill="black"/>
</g>
<g opacity="0.7">
<path opacity="0.7" d="M1.39999 253.54C2.17319 253.54 2.79999 252.913 2.79999 252.14C2.79999 251.367 2.17319 250.74 1.39999 250.74C0.626795 250.74 0 251.367 0 252.14C0 252.913 0.626795 253.54 1.39999 253.54Z" fill="black"/>
<path opacity="0.7" d="M13.9601 253.54C14.7333 253.54 15.3601 252.913 15.3601 252.14C15.3601 251.367 14.7333 250.74 13.9601 250.74C13.1869 250.74 12.5601 251.367 12.5601 252.14C12.5601 252.913 13.1869 253.54 13.9601 253.54Z" fill="black"/>
<path opacity="0.7" d="M26.5299 253.54C27.3031 253.54 27.9299 252.913 27.9299 252.14C27.9299 251.367 27.3031 250.74 26.5299 250.74C25.7567 250.74 25.1299 251.367 25.1299 252.14C25.1299 252.913 25.7567 253.54 26.5299 253.54Z" fill="black"/>
<path opacity="0.7" d="M39.0899 253.54C39.8631 253.54 40.4899 252.913 40.4899 252.14C40.4899 251.367 39.8631 250.74 39.0899 250.74C38.3167 250.74 37.6899 251.367 37.6899 252.14C37.6899 252.913 38.3167 253.54 39.0899 253.54Z" fill="black"/>
<path opacity="0.7" d="M51.6598 253.54C52.433 253.54 53.0598 252.913 53.0598 252.14C53.0598 251.367 52.433 250.74 51.6598 250.74C50.8866 250.74 50.2598 251.367 50.2598 252.14C50.2598 252.913 50.8866 253.54 51.6598 253.54Z" fill="black"/>
<path opacity="0.7" d="M65.6198 252.14C65.6198 252.91 64.9898 253.54 64.2198 253.54C63.4498 253.54 62.8198 252.91 62.8198 252.14C62.8198 251.37 63.4498 250.74 64.2198 250.74C64.9898 250.74 65.6198 251.36 65.6198 252.14Z" fill="black"/>
<path opacity="0.7" d="M76.7799 253.54C77.5531 253.54 78.1799 252.913 78.1799 252.14C78.1799 251.367 77.5531 250.74 76.7799 250.74C76.0067 250.74 75.3799 251.367 75.3799 252.14C75.3799 252.913 76.0067 253.54 76.7799 253.54Z" fill="black"/>
<path opacity="0.7" d="M90.7399 252.14C90.7399 252.91 90.1099 253.54 89.3399 253.54C88.5699 253.54 87.9399 252.91 87.9399 252.14C87.9399 251.37 88.5699 250.74 89.3399 250.74C90.1199 250.74 90.7399 251.36 90.7399 252.14Z" fill="black"/>
<path opacity="0.7" d="M101.91 253.54C102.683 253.54 103.31 252.913 103.31 252.14C103.31 251.367 102.683 250.74 101.91 250.74C101.137 250.74 100.51 251.367 100.51 252.14C100.51 252.913 101.137 253.54 101.91 253.54Z" fill="black"/>
<path opacity="0.7" d="M115.87 252.14C115.87 252.91 115.24 253.54 114.47 253.54C113.7 253.54 113.07 252.91 113.07 252.14C113.07 251.37 113.7 250.74 114.47 250.74C115.25 250.74 115.87 251.36 115.87 252.14Z" fill="black"/>
<path opacity="0.7" d="M127.04 253.54C127.813 253.54 128.44 252.913 128.44 252.14C128.44 251.367 127.813 250.74 127.04 250.74C126.267 250.74 125.64 251.367 125.64 252.14C125.64 252.913 126.267 253.54 127.04 253.54Z" fill="black"/>
</g>
<g opacity="0.7">
<path opacity="0.7" d="M1.39999 264.7C2.17319 264.7 2.79999 264.073 2.79999 263.3C2.79999 262.527 2.17319 261.9 1.39999 261.9C0.626795 261.9 0 262.527 0 263.3C0 264.073 0.626795 264.7 1.39999 264.7Z" fill="black"/>
<path opacity="0.7" d="M13.9601 264.7C14.7333 264.7 15.3601 264.073 15.3601 263.3C15.3601 262.527 14.7333 261.9 13.9601 261.9C13.1869 261.9 12.5601 262.527 12.5601 263.3C12.5601 264.073 13.1869 264.7 13.9601 264.7Z" fill="black"/>
<path opacity="0.7" d="M26.5299 264.7C27.3031 264.7 27.9299 264.073 27.9299 263.3C27.9299 262.527 27.3031 261.9 26.5299 261.9C25.7567 261.9 25.1299 262.527 25.1299 263.3C25.1299 264.073 25.7567 264.7 26.5299 264.7Z" fill="black"/>
<path opacity="0.7" d="M39.0899 264.7C39.8631 264.7 40.4899 264.073 40.4899 263.3C40.4899 262.527 39.8631 261.9 39.0899 261.9C38.3167 261.9 37.6899 262.527 37.6899 263.3C37.6899 264.073 38.3167 264.7 39.0899 264.7Z" fill="black"/>
<path opacity="0.7" d="M51.6598 264.7C52.433 264.7 53.0598 264.073 53.0598 263.3C53.0598 262.527 52.433 261.9 51.6598 261.9C50.8866 261.9 50.2598 262.527 50.2598 263.3C50.2598 264.073 50.8866 264.7 51.6598 264.7Z" fill="black"/>
<path opacity="0.7" d="M65.6198 263.3C65.6198 264.07 64.9898 264.7 64.2198 264.7C63.4498 264.7 62.8198 264.08 62.8198 263.3C62.8198 262.52 63.4498 261.9 64.2198 261.9C64.9898 261.91 65.6198 262.53 65.6198 263.3Z" fill="black"/>
<path opacity="0.7" d="M76.7799 264.7C77.5531 264.7 78.1799 264.073 78.1799 263.3C78.1799 262.527 77.5531 261.9 76.7799 261.9C76.0067 261.9 75.3799 262.527 75.3799 263.3C75.3799 264.073 76.0067 264.7 76.7799 264.7Z" fill="black"/>
<path opacity="0.7" d="M90.7399 263.3C90.7399 264.07 90.1099 264.7 89.3399 264.7C88.5699 264.7 87.9399 264.08 87.9399 263.3C87.9399 262.52 88.5699 261.9 89.3399 261.9C90.1199 261.91 90.7399 262.53 90.7399 263.3Z" fill="black"/>
<path opacity="0.7" d="M101.91 264.7C102.683 264.7 103.31 264.073 103.31 263.3C103.31 262.527 102.683 261.9 101.91 261.9C101.137 261.9 100.51 262.527 100.51 263.3C100.51 264.073 101.137 264.7 101.91 264.7Z" fill="black"/>
<path opacity="0.7" d="M115.87 263.3C115.87 264.07 115.24 264.7 114.47 264.7C113.7 264.7 113.07 264.08 113.07 263.3C113.07 262.52 113.7 261.9 114.47 261.9C115.25 261.91 115.87 262.53 115.87 263.3Z" fill="black"/>
<path opacity="0.7" d="M127.04 264.7C127.813 264.7 128.44 264.073 128.44 263.3C128.44 262.527 127.813 261.9 127.04 261.9C126.267 261.9 125.64 262.527 125.64 263.3C125.64 264.073 126.267 264.7 127.04 264.7Z" fill="black"/>
</g>
<g opacity="0.7">
<path opacity="0.7" d="M2.79999 274.47C2.79999 275.24 2.16999 275.87 1.39999 275.87C0.629994 275.87 0 275.25 0 274.47C0 273.7 0.619994 273.07 1.39999 273.07C2.16999 273.08 2.79999 273.7 2.79999 274.47Z" fill="black"/>
<path opacity="0.7" d="M15.3601 274.47C15.3601 275.24 14.7401 275.87 13.9601 275.87C13.1901 275.87 12.5601 275.25 12.5601 274.47C12.5601 273.7 13.1901 273.07 13.9601 273.07C14.7401 273.08 15.3601 273.7 15.3601 274.47Z" fill="black"/>
<path opacity="0.7" d="M27.9201 274.47C27.9201 275.24 27.2901 275.87 26.5201 275.87C25.7501 275.87 25.1201 275.25 25.1201 274.47C25.1201 273.7 25.7401 273.07 26.5201 273.07C27.3001 273.08 27.9201 273.7 27.9201 274.47Z" fill="black"/>
<path opacity="0.7" d="M40.4899 274.47C40.4899 275.24 39.8699 275.87 39.0899 275.87C38.3199 275.87 37.6899 275.25 37.6899 274.47C37.6899 273.7 38.3199 273.07 39.0899 273.07C39.8599 273.08 40.4899 273.7 40.4899 274.47Z" fill="black"/>
<path opacity="0.7" d="M53.05 274.47C53.05 275.24 52.42 275.87 51.65 275.87C50.88 275.87 50.25 275.25 50.25 274.47C50.25 273.7 50.87 273.07 51.65 273.07C52.43 273.08 53.05 273.7 53.05 274.47Z" fill="black"/>
<path opacity="0.7" d="M65.6198 274.47C65.6198 275.24 64.9898 275.87 64.2198 275.87C63.4498 275.87 62.8198 275.25 62.8198 274.47C62.8198 273.7 63.4498 273.07 64.2198 273.07C64.9898 273.08 65.6198 273.7 65.6198 274.47Z" fill="black"/>
<path opacity="0.7" d="M78.1799 274.47C78.1799 275.24 77.5499 275.87 76.7799 275.87C76.0099 275.87 75.3799 275.25 75.3799 274.47C75.3799 273.7 75.9999 273.07 76.7799 273.07C77.5499 273.08 78.1799 273.7 78.1799 274.47Z" fill="black"/>
<path opacity="0.7" d="M90.7399 274.47C90.7399 275.24 90.1099 275.87 89.3399 275.87C88.5699 275.87 87.9399 275.25 87.9399 274.47C87.9399 273.7 88.5699 273.07 89.3399 273.07C90.1199 273.08 90.7399 273.7 90.7399 274.47Z" fill="black"/>
<path opacity="0.7" d="M103.31 274.47C103.31 275.24 102.68 275.87 101.91 275.87C101.14 275.87 100.51 275.25 100.51 274.47C100.51 273.7 101.13 273.07 101.91 273.07C102.68 273.08 103.31 273.7 103.31 274.47Z" fill="black"/>
<path opacity="0.7" d="M115.87 274.47C115.87 275.24 115.24 275.87 114.47 275.87C113.7 275.87 113.07 275.25 113.07 274.47C113.07 273.7 113.7 273.07 114.47 273.07C115.25 273.08 115.87 273.7 115.87 274.47Z" fill="black"/>
<path opacity="0.7" d="M128.44 274.47C128.44 275.24 127.82 275.87 127.04 275.87C126.26 275.87 125.64 275.25 125.64 274.47C125.64 273.7 126.26 273.07 127.04 273.07C127.82 273.07 128.44 273.7 128.44 274.47Z" fill="black"/>
</g>
<g opacity="0.7">
<path opacity="0.7" d="M2.79999 285.64C2.79999 286.41 2.16999 287.04 1.39999 287.04C0.629994 287.04 0 286.42 0 285.64C0 284.87 0.619994 284.24 1.39999 284.24C2.16999 284.24 2.79999 284.87 2.79999 285.64Z" fill="black"/>
<path opacity="0.7" d="M15.3601 285.64C15.3601 286.41 14.7401 287.04 13.9601 287.04C13.1901 287.04 12.5601 286.42 12.5601 285.64C12.5601 284.87 13.1901 284.24 13.9601 284.24C14.7401 284.24 15.3601 284.87 15.3601 285.64Z" fill="black"/>
<path opacity="0.7" d="M27.9201 285.64C27.9201 286.41 27.2901 287.04 26.5201 287.04C25.7501 287.04 25.1201 286.42 25.1201 285.64C25.1201 284.87 25.7401 284.24 26.5201 284.24C27.3001 284.24 27.9201 284.87 27.9201 285.64Z" fill="black"/>
<path opacity="0.7" d="M40.4899 285.64C40.4899 286.41 39.8699 287.04 39.0899 287.04C38.3199 287.04 37.6899 286.42 37.6899 285.64C37.6899 284.87 38.3199 284.24 39.0899 284.24C39.8599 284.24 40.4899 284.87 40.4899 285.64Z" fill="black"/>
<path opacity="0.7" d="M53.05 285.64C53.05 286.41 52.42 287.04 51.65 287.04C50.88 287.04 50.25 286.42 50.25 285.64C50.25 284.87 50.87 284.24 51.65 284.24C52.43 284.24 53.05 284.87 53.05 285.64Z" fill="black"/>
<path opacity="0.7" d="M65.6198 285.64C65.6198 286.41 64.9898 287.04 64.2198 287.04C63.4498 287.04 62.8198 286.42 62.8198 285.64C62.8198 284.87 63.4498 284.24 64.2198 284.24C64.9898 284.24 65.6198 284.87 65.6198 285.64Z" fill="black"/>
<path opacity="0.7" d="M78.1799 285.64C78.1799 286.41 77.5499 287.04 76.7799 287.04C76.0099 287.04 75.3799 286.42 75.3799 285.64C75.3799 284.87 75.9999 284.24 76.7799 284.24C77.5499 284.24 78.1799 284.87 78.1799 285.64Z" fill="black"/>
<path opacity="0.7" d="M90.7399 285.64C90.7399 286.41 90.1099 287.04 89.3399 287.04C88.5699 287.04 87.9399 286.42 87.9399 285.64C87.9399 284.87 88.5699 284.24 89.3399 284.24C90.1199 284.24 90.7399 284.87 90.7399 285.64Z" fill="black"/>
<path opacity="0.7" d="M103.31 285.64C103.31 286.41 102.68 287.04 101.91 287.04C101.14 287.04 100.51 286.42 100.51 285.64C100.51 284.87 101.13 284.24 101.91 284.24C102.68 284.24 103.31 284.87 103.31 285.64Z" fill="black"/>
<path opacity="0.7" d="M115.87 285.64C115.87 286.41 115.24 287.04 114.47 287.04C113.7 287.04 113.07 286.42 113.07 285.64C113.07 284.87 113.7 284.24 114.47 284.24C115.25 284.24 115.87 284.87 115.87 285.64Z" fill="black"/>
<path opacity="0.7" d="M128.44 285.64C128.44 286.41 127.82 287.04 127.04 287.04C126.26 287.04 125.64 286.42 125.64 285.64C125.64 284.87 126.26 284.24 127.04 284.24C127.82 284.24 128.44 284.87 128.44 285.64Z" fill="black"/>
</g>
<g opacity="0.7">
<path opacity="0.7" d="M1.39999 298.21C2.17319 298.21 2.79999 297.583 2.79999 296.81C2.79999 296.037 2.17319 295.41 1.39999 295.41C0.626795 295.41 0 296.037 0 296.81C0 297.583 0.626795 298.21 1.39999 298.21Z" fill="black"/>
<path opacity="0.7" d="M13.9601 298.21C14.7333 298.21 15.3601 297.583 15.3601 296.81C15.3601 296.037 14.7333 295.41 13.9601 295.41C13.1869 295.41 12.5601 296.037 12.5601 296.81C12.5601 297.583 13.1869 298.21 13.9601 298.21Z" fill="black"/>
<path opacity="0.7" d="M26.5299 298.21C27.3031 298.21 27.9299 297.583 27.9299 296.81C27.9299 296.037 27.3031 295.41 26.5299 295.41C25.7567 295.41 25.1299 296.037 25.1299 296.81C25.1299 297.583 25.7567 298.21 26.5299 298.21Z" fill="black"/>
<path opacity="0.7" d="M39.0899 298.21C39.8631 298.21 40.4899 297.583 40.4899 296.81C40.4899 296.037 39.8631 295.41 39.0899 295.41C38.3167 295.41 37.6899 296.037 37.6899 296.81C37.6899 297.583 38.3167 298.21 39.0899 298.21Z" fill="black"/>
<path opacity="0.7" d="M51.6598 298.21C52.433 298.21 53.0598 297.583 53.0598 296.81C53.0598 296.037 52.433 295.41 51.6598 295.41C50.8866 295.41 50.2598 296.037 50.2598 296.81C50.2598 297.583 50.8866 298.21 51.6598 298.21Z" fill="black"/>
<path opacity="0.7" d="M65.6198 296.81C65.6198 297.58 64.9898 298.21 64.2198 298.21C63.4498 298.21 62.8198 297.59 62.8198 296.81C62.8198 296.03 63.4498 295.41 64.2198 295.41C64.9898 295.41 65.6198 296.04 65.6198 296.81Z" fill="black"/>
<path opacity="0.7" d="M76.7799 298.21C77.5531 298.21 78.1799 297.583 78.1799 296.81C78.1799 296.037 77.5531 295.41 76.7799 295.41C76.0067 295.41 75.3799 296.037 75.3799 296.81C75.3799 297.583 76.0067 298.21 76.7799 298.21Z" fill="black"/>
<path opacity="0.7" d="M90.7399 296.81C90.7399 297.58 90.1099 298.21 89.3399 298.21C88.5699 298.21 87.9399 297.59 87.9399 296.81C87.9399 296.03 88.5699 295.41 89.3399 295.41C90.1199 295.41 90.7399 296.04 90.7399 296.81Z" fill="black"/>
<path opacity="0.7" d="M101.91 298.21C102.683 298.21 103.31 297.583 103.31 296.81C103.31 296.037 102.683 295.41 101.91 295.41C101.137 295.41 100.51 296.037 100.51 296.81C100.51 297.583 101.137 298.21 101.91 298.21Z" fill="black"/>
<path opacity="0.7" d="M115.87 296.81C115.87 297.58 115.24 298.21 114.47 298.21C113.7 298.21 113.07 297.59 113.07 296.81C113.07 296.03 113.7 295.41 114.47 295.41C115.25 295.41 115.87 296.04 115.87 296.81Z" fill="black"/>
<path opacity="0.7" d="M127.04 298.21C127.813 298.21 128.44 297.583 128.44 296.81C128.44 296.037 127.813 295.41 127.04 295.41C126.267 295.41 125.64 296.037 125.64 296.81C125.64 297.583 126.267 298.21 127.04 298.21Z" fill="black"/>
</g>
<g opacity="0.7">
<path opacity="0.7" d="M2.79999 307.97C2.79999 308.74 2.16999 309.37 1.39999 309.37C0.629994 309.37 0 308.74 0 307.97C0 307.2 0.619994 306.57 1.39999 306.57C2.16999 306.58 2.79999 307.2 2.79999 307.97Z" fill="black"/>
<path opacity="0.7" d="M15.3601 307.97C15.3601 308.74 14.7401 309.37 13.9601 309.37C13.1901 309.37 12.5601 308.74 12.5601 307.97C12.5601 307.2 13.1901 306.57 13.9601 306.57C14.7401 306.58 15.3601 307.2 15.3601 307.97Z" fill="black"/>
<path opacity="0.7" d="M27.9201 307.97C27.9201 308.74 27.2901 309.37 26.5201 309.37C25.7501 309.37 25.1201 308.74 25.1201 307.97C25.1201 307.2 25.7401 306.57 26.5201 306.57C27.3001 306.58 27.9201 307.2 27.9201 307.97Z" fill="black"/>
<path opacity="0.7" d="M40.4899 307.97C40.4899 308.74 39.8699 309.37 39.0899 309.37C38.3199 309.37 37.6899 308.74 37.6899 307.97C37.6899 307.2 38.3199 306.57 39.0899 306.57C39.8599 306.58 40.4899 307.2 40.4899 307.97Z" fill="black"/>
<path opacity="0.7" d="M53.05 307.97C53.05 308.74 52.42 309.37 51.65 309.37C50.88 309.37 50.25 308.74 50.25 307.97C50.25 307.2 50.87 306.57 51.65 306.57C52.43 306.58 53.05 307.2 53.05 307.97Z" fill="black"/>
<path opacity="0.7" d="M65.6198 307.97C65.6198 308.74 64.9898 309.37 64.2198 309.37C63.4498 309.37 62.8198 308.74 62.8198 307.97C62.8198 307.2 63.4498 306.57 64.2198 306.57C64.9898 306.58 65.6198 307.2 65.6198 307.97Z" fill="black"/>
<path opacity="0.7" d="M78.1799 307.97C78.1799 308.74 77.5499 309.37 76.7799 309.37C76.0099 309.37 75.3799 308.74 75.3799 307.97C75.3799 307.2 75.9999 306.57 76.7799 306.57C77.5499 306.58 78.1799 307.2 78.1799 307.97Z" fill="black"/>
<path opacity="0.7" d="M90.7399 307.97C90.7399 308.74 90.1099 309.37 89.3399 309.37C88.5699 309.37 87.9399 308.74 87.9399 307.97C87.9399 307.2 88.5699 306.57 89.3399 306.57C90.1199 306.58 90.7399 307.2 90.7399 307.97Z" fill="black"/>
<path opacity="0.7" d="M103.31 307.97C103.31 308.74 102.68 309.37 101.91 309.37C101.14 309.37 100.51 308.74 100.51 307.97C100.51 307.2 101.13 306.57 101.91 306.57C102.68 306.58 103.31 307.2 103.31 307.97Z" fill="black"/>
<path opacity="0.7" d="M115.87 307.97C115.87 308.74 115.24 309.37 114.47 309.37C113.7 309.37 113.07 308.74 113.07 307.97C113.07 307.2 113.7 306.57 114.47 306.57C115.25 306.58 115.87 307.2 115.87 307.97Z" fill="black"/>
<path opacity="0.7" d="M128.44 307.97C128.44 308.74 127.82 309.37 127.04 309.37C126.26 309.37 125.64 308.74 125.64 307.97C125.64 307.2 126.26 306.57 127.04 306.57C127.82 306.57 128.44 307.2 128.44 307.97Z" fill="black"/>
</g>
<g opacity="0.7">
<path opacity="0.7" d="M1.39999 320.54C2.17319 320.54 2.79999 319.913 2.79999 319.14C2.79999 318.367 2.17319 317.74 1.39999 317.74C0.626795 317.74 0 318.367 0 319.14C0 319.913 0.626795 320.54 1.39999 320.54Z" fill="black"/>
<path opacity="0.7" d="M13.9601 320.54C14.7333 320.54 15.3601 319.913 15.3601 319.14C15.3601 318.367 14.7333 317.74 13.9601 317.74C13.1869 317.74 12.5601 318.367 12.5601 319.14C12.5601 319.913 13.1869 320.54 13.9601 320.54Z" fill="black"/>
<path opacity="0.7" d="M26.5299 320.54C27.3031 320.54 27.9299 319.913 27.9299 319.14C27.9299 318.367 27.3031 317.74 26.5299 317.74C25.7567 317.74 25.1299 318.367 25.1299 319.14C25.1299 319.913 25.7567 320.54 26.5299 320.54Z" fill="black"/>
<path opacity="0.7" d="M39.0899 320.54C39.8631 320.54 40.4899 319.913 40.4899 319.14C40.4899 318.367 39.8631 317.74 39.0899 317.74C38.3167 317.74 37.6899 318.367 37.6899 319.14C37.6899 319.913 38.3167 320.54 39.0899 320.54Z" fill="black"/>
<path opacity="0.7" d="M51.6598 320.54C52.433 320.54 53.0598 319.913 53.0598 319.14C53.0598 318.367 52.433 317.74 51.6598 317.74C50.8866 317.74 50.2598 318.367 50.2598 319.14C50.2598 319.913 50.8866 320.54 51.6598 320.54Z" fill="black"/>
<path opacity="0.7" d="M65.6198 319.14C65.6198 319.91 64.9898 320.54 64.2198 320.54C63.4498 320.54 62.8198 319.91 62.8198 319.14C62.8198 318.37 63.4498 317.74 64.2198 317.74C64.9898 317.75 65.6198 318.37 65.6198 319.14Z" fill="black"/>
<path opacity="0.7" d="M76.7799 320.54C77.5531 320.54 78.1799 319.913 78.1799 319.14C78.1799 318.367 77.5531 317.74 76.7799 317.74C76.0067 317.74 75.3799 318.367 75.3799 319.14C75.3799 319.913 76.0067 320.54 76.7799 320.54Z" fill="black"/>
<path opacity="0.7" d="M90.7399 319.14C90.7399 319.91 90.1099 320.54 89.3399 320.54C88.5699 320.54 87.9399 319.91 87.9399 319.14C87.9399 318.37 88.5699 317.74 89.3399 317.74C90.1199 317.75 90.7399 318.37 90.7399 319.14Z" fill="black"/>
<path opacity="0.7" d="M101.91 320.54C102.683 320.54 103.31 319.913 103.31 319.14C103.31 318.367 102.683 317.74 101.91 317.74C101.137 317.74 100.51 318.367 100.51 319.14C100.51 319.913 101.137 320.54 101.91 320.54Z" fill="black"/>
<path opacity="0.7" d="M115.87 319.14C115.87 319.91 115.24 320.54 114.47 320.54C113.7 320.54 113.07 319.91 113.07 319.14C113.07 318.37 113.7 317.74 114.47 317.74C115.25 317.75 115.87 318.37 115.87 319.14Z" fill="black"/>
<path opacity="0.7" d="M127.04 320.54C127.813 320.54 128.44 319.913 128.44 319.14C128.44 318.367 127.813 317.74 127.04 317.74C126.267 317.74 125.64 318.367 125.64 319.14C125.64 319.913 126.267 320.54 127.04 320.54Z" fill="black"/>
</g>
</g>
<path d="M407.11 189.84C354.77 189.84 312.19 147.26 312.19 94.92C312.19 42.58 354.77 0 407.11 0C459.45 0 502.03 42.58 502.03 94.92C502.02 147.26 459.44 189.84 407.11 189.84ZM407.11 3.19C356.53 3.19 315.38 44.34 315.38 94.92C315.38 145.5 356.53 186.65 407.11 186.65C457.69 186.65 498.84 145.5 498.84 94.92C498.84 44.34 457.69 3.19 407.11 3.19Z" fill="black"/>
<path d="M407.11 179.47C360.49 179.47 322.56 141.54 322.56 94.92C322.56 48.3 360.49 10.37 407.11 10.37C453.73 10.37 491.66 48.3 491.66 94.92C491.65 141.54 453.72 179.47 407.11 179.47ZM407.11 13.56C362.25 13.56 325.75 50.06 325.75 94.92C325.75 139.78 362.25 176.28 407.11 176.28C451.97 176.28 488.47 139.78 488.47 94.92C488.47 50.06 451.97 13.56 407.11 13.56Z" fill="black"/>
<path d="M407.11 169.1C366.21 169.1 332.93 135.82 332.93 94.92C332.93 54.02 366.21 20.74 407.11 20.74C448.01 20.74 481.29 54.02 481.29 94.92C481.28 135.82 448.01 169.1 407.11 169.1ZM407.11 23.93C367.96 23.93 336.12 55.78 336.12 94.92C336.12 134.07 367.97 165.91 407.11 165.91C446.25 165.91 478.1 134.06 478.1 94.92C478.1 55.78 446.25 23.93 407.11 23.93Z" fill="black"/>
<path d="M407.11 158.73C371.93 158.73 343.3 130.11 343.3 94.92C343.3 59.74 371.92 31.11 407.11 31.11C442.29 31.11 470.92 59.73 470.92 94.92C470.91 130.11 442.29 158.73 407.11 158.73ZM407.11 34.3C373.68 34.3 346.49 61.5 346.49 94.92C346.49 128.35 373.69 155.54 407.11 155.54C440.53 155.54 467.73 128.34 467.73 94.92C467.73 61.5 440.53 34.3 407.11 34.3Z" fill="black"/>
<path d="M407.11 148.36C377.64 148.36 353.67 124.39 353.67 94.92C353.67 65.45 377.64 41.48 407.11 41.48C436.58 41.48 460.55 65.45 460.55 94.92C460.54 124.39 436.57 148.36 407.11 148.36ZM407.11 44.67C379.4 44.67 356.86 67.21 356.86 94.92C356.86 122.63 379.4 145.18 407.11 145.18C434.82 145.18 457.36 122.64 457.36 94.92C457.36 67.21 434.82 44.67 407.11 44.67Z" fill="black"/>
<path d="M407.11 137.99C383.36 137.99 364.04 118.67 364.04 94.92C364.04 71.17 383.36 51.85 407.11 51.85C430.86 51.85 450.18 71.17 450.18 94.92C450.18 118.67 430.85 137.99 407.11 137.99ZM407.11 55.04C385.12 55.04 367.22 72.93 367.22 94.93C367.22 116.92 385.11 134.82 407.11 134.82C429.11 134.82 447 116.93 447 94.93C446.99 72.93 429.1 55.04 407.11 55.04Z" fill="black"/>
</svg>
