<svg width="477" height="449" viewBox="0 0 477 449" fill="none" xmlns="http://www.w3.org/2000/svg">
<path d="M479.743 257.069C492.15 231.035 481.103 199.872 455.069 187.465C429.035 175.058 397.872 186.105 385.465 212.139C373.058 238.173 384.105 269.336 410.139 281.743C436.173 294.15 467.336 283.103 479.743 257.069Z" fill="white"/>
<g opacity="0.7">
<g opacity="0.7">
<path opacity="0.7" d="M2.21005 92.7C2.98325 92.7 3.61005 92.0732 3.61005 91.3C3.61005 90.5268 2.98325 89.9 2.21005 89.9C1.43685 89.9 0.810059 90.5268 0.810059 91.3C0.810059 92.0732 1.43685 92.7 2.21005 92.7Z" fill="white"/>
<path opacity="0.7" d="M14.7701 92.7C15.5433 92.7 16.1701 92.0732 16.1701 91.3C16.1701 90.5268 15.5433 89.9 14.7701 89.9C13.9969 89.9 13.3701 90.5268 13.3701 91.3C13.3701 92.0732 13.9969 92.7 14.7701 92.7Z" fill="white"/>
<path opacity="0.7" d="M27.3399 92.7C28.1131 92.7 28.7399 92.0732 28.7399 91.3C28.7399 90.5268 28.1131 89.9 27.3399 89.9C26.5667 89.9 25.9399 90.5268 25.9399 91.3C25.9399 92.0732 26.5667 92.7 27.3399 92.7Z" fill="white"/>
<path opacity="0.7" d="M39.9 92.7C40.6732 92.7 41.3 92.0732 41.3 91.3C41.3 90.5268 40.6732 89.9 39.9 89.9C39.1268 89.9 38.5 90.5268 38.5 91.3C38.5 92.0732 39.1268 92.7 39.9 92.7Z" fill="white"/>
<path opacity="0.7" d="M52.4703 92.7C53.2435 92.7 53.8703 92.0732 53.8703 91.3C53.8703 90.5268 53.2435 89.9 52.4703 89.9C51.6971 89.9 51.0703 90.5268 51.0703 91.3C51.0703 92.0732 51.6971 92.7 52.4703 92.7Z" fill="white"/>
<path opacity="0.7" d="M66.4299 91.3C66.4299 92.07 65.7999 92.7 65.0299 92.7C64.2599 92.7 63.6299 92.08 63.6299 91.3C63.6299 90.53 64.2599 89.9 65.0299 89.9C65.7999 89.9 66.4299 90.52 66.4299 91.3Z" fill="white"/>
<path opacity="0.7" d="M77.5899 92.7C78.3631 92.7 78.9899 92.0732 78.9899 91.3C78.9899 90.5268 78.3631 89.9 77.5899 89.9C76.8167 89.9 76.1899 90.5268 76.1899 91.3C76.1899 92.0732 76.8167 92.7 77.5899 92.7Z" fill="white"/>
<path opacity="0.7" d="M91.55 91.3C91.55 92.07 90.92 92.7 90.15 92.7C89.38 92.7 88.75 92.08 88.75 91.3C88.75 90.53 89.38 89.9 90.15 89.9C90.93 89.9 91.55 90.52 91.55 91.3Z" fill="white"/>
<path opacity="0.7" d="M102.72 92.7C103.494 92.7 104.12 92.0732 104.12 91.3C104.12 90.5268 103.494 89.9 102.72 89.9C101.947 89.9 101.32 90.5268 101.32 91.3C101.32 92.0732 101.947 92.7 102.72 92.7Z" fill="white"/>
<path opacity="0.7" d="M116.68 91.3C116.68 92.07 116.05 92.7 115.28 92.7C114.51 92.7 113.88 92.08 113.88 91.3C113.88 90.53 114.51 89.9 115.28 89.9C116.06 89.9 116.68 90.52 116.68 91.3Z" fill="white"/>
<path opacity="0.7" d="M127.85 92.7C128.623 92.7 129.25 92.0732 129.25 91.3C129.25 90.5268 128.623 89.9 127.85 89.9C127.077 89.9 126.45 90.5268 126.45 91.3C126.45 92.0732 127.077 92.7 127.85 92.7Z" fill="white"/>
</g>
<g opacity="0.7">
<path opacity="0.7" d="M2.21005 103.86C2.98325 103.86 3.61005 103.233 3.61005 102.46C3.61005 101.687 2.98325 101.06 2.21005 101.06C1.43685 101.06 0.810059 101.687 0.810059 102.46C0.810059 103.233 1.43685 103.86 2.21005 103.86Z" fill="white"/>
<path opacity="0.7" d="M14.7701 103.86C15.5433 103.86 16.1701 103.233 16.1701 102.46C16.1701 101.687 15.5433 101.06 14.7701 101.06C13.9969 101.06 13.3701 101.687 13.3701 102.46C13.3701 103.233 13.9969 103.86 14.7701 103.86Z" fill="white"/>
<path opacity="0.7" d="M27.3399 103.86C28.1131 103.86 28.7399 103.233 28.7399 102.46C28.7399 101.687 28.1131 101.06 27.3399 101.06C26.5667 101.06 25.9399 101.687 25.9399 102.46C25.9399 103.233 26.5667 103.86 27.3399 103.86Z" fill="white"/>
<path opacity="0.7" d="M39.9 103.86C40.6732 103.86 41.3 103.233 41.3 102.46C41.3 101.687 40.6732 101.06 39.9 101.06C39.1268 101.06 38.5 101.687 38.5 102.46C38.5 103.233 39.1268 103.86 39.9 103.86Z" fill="white"/>
<path opacity="0.7" d="M52.4703 103.86C53.2435 103.86 53.8703 103.233 53.8703 102.46C53.8703 101.687 53.2435 101.06 52.4703 101.06C51.6971 101.06 51.0703 101.687 51.0703 102.46C51.0703 103.233 51.6971 103.86 52.4703 103.86Z" fill="white"/>
<path opacity="0.7" d="M66.4299 102.46C66.4299 103.23 65.7999 103.86 65.0299 103.86C64.2599 103.86 63.6299 103.24 63.6299 102.46C63.6299 101.69 64.2599 101.06 65.0299 101.06C65.7999 101.07 66.4299 101.69 66.4299 102.46Z" fill="white"/>
<path opacity="0.7" d="M77.5899 103.86C78.3631 103.86 78.9899 103.233 78.9899 102.46C78.9899 101.687 78.3631 101.06 77.5899 101.06C76.8167 101.06 76.1899 101.687 76.1899 102.46C76.1899 103.233 76.8167 103.86 77.5899 103.86Z" fill="white"/>
<path opacity="0.7" d="M91.55 102.46C91.55 103.23 90.92 103.86 90.15 103.86C89.38 103.86 88.75 103.24 88.75 102.46C88.75 101.69 89.38 101.06 90.15 101.06C90.93 101.07 91.55 101.69 91.55 102.46Z" fill="white"/>
<path opacity="0.7" d="M102.72 103.86C103.494 103.86 104.12 103.233 104.12 102.46C104.12 101.687 103.494 101.06 102.72 101.06C101.947 101.06 101.32 101.687 101.32 102.46C101.32 103.233 101.947 103.86 102.72 103.86Z" fill="white"/>
<path opacity="0.7" d="M116.68 102.46C116.68 103.23 116.05 103.86 115.28 103.86C114.51 103.86 113.88 103.24 113.88 102.46C113.88 101.69 114.51 101.06 115.28 101.06C116.06 101.07 116.68 101.69 116.68 102.46Z" fill="white"/>
<path opacity="0.7" d="M127.85 103.86C128.623 103.86 129.25 103.233 129.25 102.46C129.25 101.687 128.623 101.06 127.85 101.06C127.077 101.06 126.45 101.687 126.45 102.46C126.45 103.233 127.077 103.86 127.85 103.86Z" fill="white"/>
</g>
<g opacity="0.7">
<path opacity="0.7" d="M3.61005 113.63C3.61005 114.4 2.98005 115.03 2.21005 115.03C1.44005 115.03 0.810059 114.4 0.810059 113.63C0.810059 112.86 1.43005 112.23 2.21005 112.23C2.98005 112.24 3.61005 112.86 3.61005 113.63Z" fill="white"/>
<path opacity="0.7" d="M16.1701 113.63C16.1701 114.4 15.5501 115.03 14.7701 115.03C14.0001 115.03 13.3701 114.4 13.3701 113.63C13.3701 112.86 14.0001 112.23 14.7701 112.23C15.5501 112.24 16.1701 112.86 16.1701 113.63Z" fill="white"/>
<path opacity="0.7" d="M28.7302 113.63C28.7302 114.4 28.1002 115.03 27.3302 115.03C26.5602 115.03 25.9302 114.4 25.9302 113.63C25.9302 112.86 26.5502 112.23 27.3302 112.23C28.1102 112.24 28.7302 112.86 28.7302 113.63Z" fill="white"/>
<path opacity="0.7" d="M41.3 113.63C41.3 114.4 40.68 115.03 39.9 115.03C39.13 115.03 38.5 114.4 38.5 113.63C38.5 112.86 39.13 112.23 39.9 112.23C40.67 112.24 41.3 112.86 41.3 113.63Z" fill="white"/>
<path opacity="0.7" d="M53.86 113.63C53.86 114.4 53.2301 115.03 52.4601 115.03C51.6901 115.03 51.0601 114.4 51.0601 113.63C51.0601 112.86 51.6801 112.23 52.4601 112.23C53.2401 112.24 53.86 112.86 53.86 113.63Z" fill="white"/>
<path opacity="0.7" d="M66.4299 113.63C66.4299 114.4 65.7999 115.03 65.0299 115.03C64.2599 115.03 63.6299 114.4 63.6299 113.63C63.6299 112.86 64.2599 112.23 65.0299 112.23C65.7999 112.24 66.4299 112.86 66.4299 113.63Z" fill="white"/>
<path opacity="0.7" d="M78.9899 113.63C78.9899 114.4 78.3599 115.03 77.5899 115.03C76.8199 115.03 76.1899 114.4 76.1899 113.63C76.1899 112.86 76.8099 112.23 77.5899 112.23C78.3599 112.24 78.9899 112.86 78.9899 113.63Z" fill="white"/>
<path opacity="0.7" d="M91.55 113.63C91.55 114.4 90.92 115.03 90.15 115.03C89.38 115.03 88.75 114.4 88.75 113.63C88.75 112.86 89.38 112.23 90.15 112.23C90.93 112.24 91.55 112.86 91.55 113.63Z" fill="white"/>
<path opacity="0.7" d="M104.12 113.63C104.12 114.4 103.49 115.03 102.72 115.03C101.95 115.03 101.32 114.4 101.32 113.63C101.32 112.86 101.94 112.23 102.72 112.23C103.49 112.24 104.12 112.86 104.12 113.63Z" fill="white"/>
<path opacity="0.7" d="M116.68 113.63C116.68 114.4 116.05 115.03 115.28 115.03C114.51 115.03 113.88 114.4 113.88 113.63C113.88 112.86 114.51 112.23 115.28 112.23C116.06 112.24 116.68 112.86 116.68 113.63Z" fill="white"/>
<path opacity="0.7" d="M129.25 113.63C129.25 114.4 128.63 115.03 127.85 115.03C127.07 115.03 126.45 114.4 126.45 113.63C126.45 112.86 127.07 112.23 127.85 112.23C128.63 112.23 129.25 112.86 129.25 113.63Z" fill="white"/>
</g>
<g opacity="0.7">
<path opacity="0.7" d="M3.61005 124.8C3.61005 125.57 2.98005 126.2 2.21005 126.2C1.44005 126.2 0.810059 125.58 0.810059 124.8C0.810059 124.03 1.43005 123.4 2.21005 123.4C2.98005 123.4 3.61005 124.03 3.61005 124.8Z" fill="white"/>
<path opacity="0.7" d="M16.1701 124.8C16.1701 125.57 15.5501 126.2 14.7701 126.2C14.0001 126.2 13.3701 125.58 13.3701 124.8C13.3701 124.03 14.0001 123.4 14.7701 123.4C15.5501 123.4 16.1701 124.03 16.1701 124.8Z" fill="white"/>
<path opacity="0.7" d="M28.7302 124.8C28.7302 125.57 28.1002 126.2 27.3302 126.2C26.5602 126.2 25.9302 125.58 25.9302 124.8C25.9302 124.03 26.5502 123.4 27.3302 123.4C28.1102 123.4 28.7302 124.03 28.7302 124.8Z" fill="white"/>
<path opacity="0.7" d="M41.3 124.8C41.3 125.57 40.68 126.2 39.9 126.2C39.13 126.2 38.5 125.58 38.5 124.8C38.5 124.03 39.13 123.4 39.9 123.4C40.67 123.4 41.3 124.03 41.3 124.8Z" fill="white"/>
<path opacity="0.7" d="M53.86 124.8C53.86 125.57 53.2301 126.2 52.4601 126.2C51.6901 126.2 51.0601 125.58 51.0601 124.8C51.0601 124.03 51.6801 123.4 52.4601 123.4C53.2401 123.4 53.86 124.03 53.86 124.8Z" fill="white"/>
<path opacity="0.7" d="M66.4299 124.8C66.4299 125.57 65.7999 126.2 65.0299 126.2C64.2599 126.2 63.6299 125.58 63.6299 124.8C63.6299 124.03 64.2599 123.4 65.0299 123.4C65.7999 123.4 66.4299 124.03 66.4299 124.8Z" fill="white"/>
<path opacity="0.7" d="M78.9899 124.8C78.9899 125.57 78.3599 126.2 77.5899 126.2C76.8199 126.2 76.1899 125.58 76.1899 124.8C76.1899 124.03 76.8099 123.4 77.5899 123.4C78.3599 123.4 78.9899 124.03 78.9899 124.8Z" fill="white"/>
<path opacity="0.7" d="M91.55 124.8C91.55 125.57 90.92 126.2 90.15 126.2C89.38 126.2 88.75 125.58 88.75 124.8C88.75 124.03 89.38 123.4 90.15 123.4C90.93 123.4 91.55 124.03 91.55 124.8Z" fill="white"/>
<path opacity="0.7" d="M104.12 124.8C104.12 125.57 103.49 126.2 102.72 126.2C101.95 126.2 101.32 125.58 101.32 124.8C101.32 124.03 101.94 123.4 102.72 123.4C103.49 123.4 104.12 124.03 104.12 124.8Z" fill="white"/>
<path opacity="0.7" d="M116.68 124.8C116.68 125.57 116.05 126.2 115.28 126.2C114.51 126.2 113.88 125.58 113.88 124.8C113.88 124.03 114.51 123.4 115.28 123.4C116.06 123.4 116.68 124.03 116.68 124.8Z" fill="white"/>
<path opacity="0.7" d="M129.25 124.8C129.25 125.57 128.63 126.2 127.85 126.2C127.07 126.2 126.45 125.58 126.45 124.8C126.45 124.03 127.07 123.4 127.85 123.4C128.63 123.4 129.25 124.03 129.25 124.8Z" fill="white"/>
</g>
<g opacity="0.7">
<path opacity="0.7" d="M2.21005 137.37C2.98325 137.37 3.61005 136.743 3.61005 135.97C3.61005 135.197 2.98325 134.57 2.21005 134.57C1.43685 134.57 0.810059 135.197 0.810059 135.97C0.810059 136.743 1.43685 137.37 2.21005 137.37Z" fill="white"/>
<path opacity="0.7" d="M14.7701 137.37C15.5433 137.37 16.1701 136.743 16.1701 135.97C16.1701 135.197 15.5433 134.57 14.7701 134.57C13.9969 134.57 13.3701 135.197 13.3701 135.97C13.3701 136.743 13.9969 137.37 14.7701 137.37Z" fill="white"/>
<path opacity="0.7" d="M27.3399 137.37C28.1131 137.37 28.7399 136.743 28.7399 135.97C28.7399 135.197 28.1131 134.57 27.3399 134.57C26.5667 134.57 25.9399 135.197 25.9399 135.97C25.9399 136.743 26.5667 137.37 27.3399 137.37Z" fill="white"/>
<path opacity="0.7" d="M39.9 137.37C40.6732 137.37 41.3 136.743 41.3 135.97C41.3 135.197 40.6732 134.57 39.9 134.57C39.1268 134.57 38.5 135.197 38.5 135.97C38.5 136.743 39.1268 137.37 39.9 137.37Z" fill="white"/>
<path opacity="0.7" d="M52.4703 137.37C53.2435 137.37 53.8703 136.743 53.8703 135.97C53.8703 135.197 53.2435 134.57 52.4703 134.57C51.6971 134.57 51.0703 135.197 51.0703 135.97C51.0703 136.743 51.6971 137.37 52.4703 137.37Z" fill="white"/>
<path opacity="0.7" d="M66.4299 135.97C66.4299 136.74 65.7999 137.37 65.0299 137.37C64.2599 137.37 63.6299 136.75 63.6299 135.97C63.6299 135.19 64.2599 134.57 65.0299 134.57C65.7999 134.57 66.4299 135.2 66.4299 135.97Z" fill="white"/>
<path opacity="0.7" d="M77.5899 137.37C78.3631 137.37 78.9899 136.743 78.9899 135.97C78.9899 135.197 78.3631 134.57 77.5899 134.57C76.8167 134.57 76.1899 135.197 76.1899 135.97C76.1899 136.743 76.8167 137.37 77.5899 137.37Z" fill="white"/>
<path opacity="0.7" d="M91.55 135.97C91.55 136.74 90.92 137.37 90.15 137.37C89.38 137.37 88.75 136.75 88.75 135.97C88.75 135.19 89.38 134.57 90.15 134.57C90.93 134.57 91.55 135.2 91.55 135.97Z" fill="white"/>
<path opacity="0.7" d="M102.72 137.37C103.494 137.37 104.12 136.743 104.12 135.97C104.12 135.197 103.494 134.57 102.72 134.57C101.947 134.57 101.32 135.197 101.32 135.97C101.32 136.743 101.947 137.37 102.72 137.37Z" fill="white"/>
<path opacity="0.7" d="M116.68 135.97C116.68 136.74 116.05 137.37 115.28 137.37C114.51 137.37 113.88 136.75 113.88 135.97C113.88 135.19 114.51 134.57 115.28 134.57C116.06 134.57 116.68 135.2 116.68 135.97Z" fill="white"/>
<path opacity="0.7" d="M127.85 137.37C128.623 137.37 129.25 136.743 129.25 135.97C129.25 135.197 128.623 134.57 127.85 134.57C127.077 134.57 126.45 135.197 126.45 135.97C126.45 136.743 127.077 137.37 127.85 137.37Z" fill="white"/>
</g>
<g opacity="0.7">
<path opacity="0.7" d="M2.21005 148.54C2.98325 148.54 3.61005 147.913 3.61005 147.14C3.61005 146.367 2.98325 145.74 2.21005 145.74C1.43685 145.74 0.810059 146.367 0.810059 147.14C0.810059 147.913 1.43685 148.54 2.21005 148.54Z" fill="white"/>
<path opacity="0.7" d="M14.7701 148.54C15.5433 148.54 16.1701 147.913 16.1701 147.14C16.1701 146.367 15.5433 145.74 14.7701 145.74C13.9969 145.74 13.3701 146.367 13.3701 147.14C13.3701 147.913 13.9969 148.54 14.7701 148.54Z" fill="white"/>
<path opacity="0.7" d="M27.3399 148.54C28.1131 148.54 28.7399 147.913 28.7399 147.14C28.7399 146.367 28.1131 145.74 27.3399 145.74C26.5667 145.74 25.9399 146.367 25.9399 147.14C25.9399 147.913 26.5667 148.54 27.3399 148.54Z" fill="white"/>
<path opacity="0.7" d="M39.9 148.54C40.6732 148.54 41.3 147.913 41.3 147.14C41.3 146.367 40.6732 145.74 39.9 145.74C39.1268 145.74 38.5 146.367 38.5 147.14C38.5 147.913 39.1268 148.54 39.9 148.54Z" fill="white"/>
<path opacity="0.7" d="M52.4703 148.54C53.2435 148.54 53.8703 147.913 53.8703 147.14C53.8703 146.367 53.2435 145.74 52.4703 145.74C51.6971 145.74 51.0703 146.367 51.0703 147.14C51.0703 147.913 51.6971 148.54 52.4703 148.54Z" fill="white"/>
<path opacity="0.7" d="M66.4299 147.14C66.4299 147.91 65.7999 148.54 65.0299 148.54C64.2599 148.54 63.6299 147.91 63.6299 147.14C63.6299 146.37 64.2599 145.74 65.0299 145.74C65.7999 145.74 66.4299 146.36 66.4299 147.14Z" fill="white"/>
<path opacity="0.7" d="M77.5899 148.54C78.3631 148.54 78.9899 147.913 78.9899 147.14C78.9899 146.367 78.3631 145.74 77.5899 145.74C76.8167 145.74 76.1899 146.367 76.1899 147.14C76.1899 147.913 76.8167 148.54 77.5899 148.54Z" fill="white"/>
<path opacity="0.7" d="M91.55 147.14C91.55 147.91 90.92 148.54 90.15 148.54C89.38 148.54 88.75 147.91 88.75 147.14C88.75 146.37 89.38 145.74 90.15 145.74C90.93 145.74 91.55 146.36 91.55 147.14Z" fill="white"/>
<path opacity="0.7" d="M102.72 148.54C103.494 148.54 104.12 147.913 104.12 147.14C104.12 146.367 103.494 145.74 102.72 145.74C101.947 145.74 101.32 146.367 101.32 147.14C101.32 147.913 101.947 148.54 102.72 148.54Z" fill="white"/>
<path opacity="0.7" d="M116.68 147.14C116.68 147.91 116.05 148.54 115.28 148.54C114.51 148.54 113.88 147.91 113.88 147.14C113.88 146.37 114.51 145.74 115.28 145.74C116.06 145.74 116.68 146.36 116.68 147.14Z" fill="white"/>
<path opacity="0.7" d="M127.85 148.54C128.623 148.54 129.25 147.913 129.25 147.14C129.25 146.367 128.623 145.74 127.85 145.74C127.077 145.74 126.45 146.367 126.45 147.14C126.45 147.913 127.077 148.54 127.85 148.54Z" fill="white"/>
</g>
<g opacity="0.7">
<path opacity="0.7" d="M2.21005 159.7C2.98325 159.7 3.61005 159.073 3.61005 158.3C3.61005 157.527 2.98325 156.9 2.21005 156.9C1.43685 156.9 0.810059 157.527 0.810059 158.3C0.810059 159.073 1.43685 159.7 2.21005 159.7Z" fill="white"/>
<path opacity="0.7" d="M14.7701 159.7C15.5433 159.7 16.1701 159.073 16.1701 158.3C16.1701 157.527 15.5433 156.9 14.7701 156.9C13.9969 156.9 13.3701 157.527 13.3701 158.3C13.3701 159.073 13.9969 159.7 14.7701 159.7Z" fill="white"/>
<path opacity="0.7" d="M27.3399 159.7C28.1131 159.7 28.7399 159.073 28.7399 158.3C28.7399 157.527 28.1131 156.9 27.3399 156.9C26.5667 156.9 25.9399 157.527 25.9399 158.3C25.9399 159.073 26.5667 159.7 27.3399 159.7Z" fill="white"/>
<path opacity="0.7" d="M39.9 159.7C40.6732 159.7 41.3 159.073 41.3 158.3C41.3 157.527 40.6732 156.9 39.9 156.9C39.1268 156.9 38.5 157.527 38.5 158.3C38.5 159.073 39.1268 159.7 39.9 159.7Z" fill="white"/>
<path opacity="0.7" d="M52.4703 159.7C53.2435 159.7 53.8703 159.073 53.8703 158.3C53.8703 157.527 53.2435 156.9 52.4703 156.9C51.6971 156.9 51.0703 157.527 51.0703 158.3C51.0703 159.073 51.6971 159.7 52.4703 159.7Z" fill="white"/>
<path opacity="0.7" d="M66.4299 158.3C66.4299 159.07 65.7999 159.7 65.0299 159.7C64.2599 159.7 63.6299 159.08 63.6299 158.3C63.6299 157.52 64.2599 156.9 65.0299 156.9C65.7999 156.91 66.4299 157.53 66.4299 158.3Z" fill="white"/>
<path opacity="0.7" d="M77.5899 159.7C78.3631 159.7 78.9899 159.073 78.9899 158.3C78.9899 157.527 78.3631 156.9 77.5899 156.9C76.8167 156.9 76.1899 157.527 76.1899 158.3C76.1899 159.073 76.8167 159.7 77.5899 159.7Z" fill="white"/>
<path opacity="0.7" d="M91.55 158.3C91.55 159.07 90.92 159.7 90.15 159.7C89.38 159.7 88.75 159.08 88.75 158.3C88.75 157.52 89.38 156.9 90.15 156.9C90.93 156.91 91.55 157.53 91.55 158.3Z" fill="white"/>
<path opacity="0.7" d="M102.72 159.7C103.494 159.7 104.12 159.073 104.12 158.3C104.12 157.527 103.494 156.9 102.72 156.9C101.947 156.9 101.32 157.527 101.32 158.3C101.32 159.073 101.947 159.7 102.72 159.7Z" fill="white"/>
<path opacity="0.7" d="M116.68 158.3C116.68 159.07 116.05 159.7 115.28 159.7C114.51 159.7 113.88 159.08 113.88 158.3C113.88 157.52 114.51 156.9 115.28 156.9C116.06 156.91 116.68 157.53 116.68 158.3Z" fill="white"/>
<path opacity="0.7" d="M127.85 159.7C128.623 159.7 129.25 159.073 129.25 158.3C129.25 157.527 128.623 156.9 127.85 156.9C127.077 156.9 126.45 157.527 126.45 158.3C126.45 159.073 127.077 159.7 127.85 159.7Z" fill="white"/>
</g>
<g opacity="0.7">
<path opacity="0.7" d="M3.61005 169.47C3.61005 170.24 2.98005 170.87 2.21005 170.87C1.44005 170.87 0.810059 170.25 0.810059 169.47C0.810059 168.7 1.43005 168.07 2.21005 168.07C2.98005 168.08 3.61005 168.7 3.61005 169.47Z" fill="white"/>
<path opacity="0.7" d="M16.1701 169.47C16.1701 170.24 15.5501 170.87 14.7701 170.87C14.0001 170.87 13.3701 170.25 13.3701 169.47C13.3701 168.7 14.0001 168.07 14.7701 168.07C15.5501 168.08 16.1701 168.7 16.1701 169.47Z" fill="white"/>
<path opacity="0.7" d="M28.7302 169.47C28.7302 170.24 28.1002 170.87 27.3302 170.87C26.5602 170.87 25.9302 170.25 25.9302 169.47C25.9302 168.7 26.5502 168.07 27.3302 168.07C28.1102 168.08 28.7302 168.7 28.7302 169.47Z" fill="white"/>
<path opacity="0.7" d="M41.3 169.47C41.3 170.24 40.68 170.87 39.9 170.87C39.13 170.87 38.5 170.25 38.5 169.47C38.5 168.7 39.13 168.07 39.9 168.07C40.67 168.08 41.3 168.7 41.3 169.47Z" fill="white"/>
<path opacity="0.7" d="M53.86 169.47C53.86 170.24 53.2301 170.87 52.4601 170.87C51.6901 170.87 51.0601 170.25 51.0601 169.47C51.0601 168.7 51.6801 168.07 52.4601 168.07C53.2401 168.08 53.86 168.7 53.86 169.47Z" fill="white"/>
<path opacity="0.7" d="M66.4299 169.47C66.4299 170.24 65.7999 170.87 65.0299 170.87C64.2599 170.87 63.6299 170.25 63.6299 169.47C63.6299 168.7 64.2599 168.07 65.0299 168.07C65.7999 168.08 66.4299 168.7 66.4299 169.47Z" fill="white"/>
<path opacity="0.7" d="M78.9899 169.47C78.9899 170.24 78.3599 170.87 77.5899 170.87C76.8199 170.87 76.1899 170.25 76.1899 169.47C76.1899 168.7 76.8099 168.07 77.5899 168.07C78.3599 168.08 78.9899 168.7 78.9899 169.47Z" fill="white"/>
<path opacity="0.7" d="M91.55 169.47C91.55 170.24 90.92 170.87 90.15 170.87C89.38 170.87 88.75 170.25 88.75 169.47C88.75 168.7 89.38 168.07 90.15 168.07C90.93 168.08 91.55 168.7 91.55 169.47Z" fill="white"/>
<path opacity="0.7" d="M104.12 169.47C104.12 170.24 103.49 170.87 102.72 170.87C101.95 170.87 101.32 170.25 101.32 169.47C101.32 168.7 101.94 168.07 102.72 168.07C103.49 168.08 104.12 168.7 104.12 169.47Z" fill="white"/>
<path opacity="0.7" d="M116.68 169.47C116.68 170.24 116.05 170.87 115.28 170.87C114.51 170.87 113.88 170.25 113.88 169.47C113.88 168.7 114.51 168.07 115.28 168.07C116.06 168.08 116.68 168.7 116.68 169.47Z" fill="white"/>
<path opacity="0.7" d="M129.25 169.47C129.25 170.24 128.63 170.87 127.85 170.87C127.07 170.87 126.45 170.25 126.45 169.47C126.45 168.7 127.07 168.07 127.85 168.07C128.63 168.07 129.25 168.7 129.25 169.47Z" fill="white"/>
</g>
<g opacity="0.7">
<path opacity="0.7" d="M3.61005 180.64C3.61005 181.41 2.98005 182.04 2.21005 182.04C1.44005 182.04 0.810059 181.42 0.810059 180.64C0.810059 179.87 1.43005 179.24 2.21005 179.24C2.98005 179.24 3.61005 179.87 3.61005 180.64Z" fill="white"/>
<path opacity="0.7" d="M16.1701 180.64C16.1701 181.41 15.5501 182.04 14.7701 182.04C14.0001 182.04 13.3701 181.42 13.3701 180.64C13.3701 179.87 14.0001 179.24 14.7701 179.24C15.5501 179.24 16.1701 179.87 16.1701 180.64Z" fill="white"/>
<path opacity="0.7" d="M28.7302 180.64C28.7302 181.41 28.1002 182.04 27.3302 182.04C26.5602 182.04 25.9302 181.42 25.9302 180.64C25.9302 179.87 26.5502 179.24 27.3302 179.24C28.1102 179.24 28.7302 179.87 28.7302 180.64Z" fill="white"/>
<path opacity="0.7" d="M41.3 180.64C41.3 181.41 40.68 182.04 39.9 182.04C39.13 182.04 38.5 181.42 38.5 180.64C38.5 179.87 39.13 179.24 39.9 179.24C40.67 179.24 41.3 179.87 41.3 180.64Z" fill="white"/>
<path opacity="0.7" d="M53.86 180.64C53.86 181.41 53.2301 182.04 52.4601 182.04C51.6901 182.04 51.0601 181.42 51.0601 180.64C51.0601 179.87 51.6801 179.24 52.4601 179.24C53.2401 179.24 53.86 179.87 53.86 180.64Z" fill="white"/>
<path opacity="0.7" d="M66.4299 180.64C66.4299 181.41 65.7999 182.04 65.0299 182.04C64.2599 182.04 63.6299 181.42 63.6299 180.64C63.6299 179.87 64.2599 179.24 65.0299 179.24C65.7999 179.24 66.4299 179.87 66.4299 180.64Z" fill="white"/>
<path opacity="0.7" d="M78.9899 180.64C78.9899 181.41 78.3599 182.04 77.5899 182.04C76.8199 182.04 76.1899 181.42 76.1899 180.64C76.1899 179.87 76.8099 179.24 77.5899 179.24C78.3599 179.24 78.9899 179.87 78.9899 180.64Z" fill="white"/>
<path opacity="0.7" d="M91.55 180.64C91.55 181.41 90.92 182.04 90.15 182.04C89.38 182.04 88.75 181.42 88.75 180.64C88.75 179.87 89.38 179.24 90.15 179.24C90.93 179.24 91.55 179.87 91.55 180.64Z" fill="white"/>
<path opacity="0.7" d="M104.12 180.64C104.12 181.41 103.49 182.04 102.72 182.04C101.95 182.04 101.32 181.42 101.32 180.64C101.32 179.87 101.94 179.24 102.72 179.24C103.49 179.24 104.12 179.87 104.12 180.64Z" fill="white"/>
<path opacity="0.7" d="M116.68 180.64C116.68 181.41 116.05 182.04 115.28 182.04C114.51 182.04 113.88 181.42 113.88 180.64C113.88 179.87 114.51 179.24 115.28 179.24C116.06 179.24 116.68 179.87 116.68 180.64Z" fill="white"/>
<path opacity="0.7" d="M129.25 180.64C129.25 181.41 128.63 182.04 127.85 182.04C127.07 182.04 126.45 181.42 126.45 180.64C126.45 179.87 127.07 179.24 127.85 179.24C128.63 179.24 129.25 179.87 129.25 180.64Z" fill="white"/>
</g>
<g opacity="0.7">
<path opacity="0.7" d="M2.21005 193.21C2.98325 193.21 3.61005 192.583 3.61005 191.81C3.61005 191.037 2.98325 190.41 2.21005 190.41C1.43685 190.41 0.810059 191.037 0.810059 191.81C0.810059 192.583 1.43685 193.21 2.21005 193.21Z" fill="white"/>
<path opacity="0.7" d="M14.7701 193.21C15.5433 193.21 16.1701 192.583 16.1701 191.81C16.1701 191.037 15.5433 190.41 14.7701 190.41C13.9969 190.41 13.3701 191.037 13.3701 191.81C13.3701 192.583 13.9969 193.21 14.7701 193.21Z" fill="white"/>
<path opacity="0.7" d="M27.3399 193.21C28.1131 193.21 28.7399 192.583 28.7399 191.81C28.7399 191.037 28.1131 190.41 27.3399 190.41C26.5667 190.41 25.9399 191.037 25.9399 191.81C25.9399 192.583 26.5667 193.21 27.3399 193.21Z" fill="white"/>
<path opacity="0.7" d="M39.9 193.21C40.6732 193.21 41.3 192.583 41.3 191.81C41.3 191.037 40.6732 190.41 39.9 190.41C39.1268 190.41 38.5 191.037 38.5 191.81C38.5 192.583 39.1268 193.21 39.9 193.21Z" fill="white"/>
<path opacity="0.7" d="M52.4703 193.21C53.2435 193.21 53.8703 192.583 53.8703 191.81C53.8703 191.037 53.2435 190.41 52.4703 190.41C51.6971 190.41 51.0703 191.037 51.0703 191.81C51.0703 192.583 51.6971 193.21 52.4703 193.21Z" fill="white"/>
<path opacity="0.7" d="M66.4299 191.81C66.4299 192.58 65.7999 193.21 65.0299 193.21C64.2599 193.21 63.6299 192.59 63.6299 191.81C63.6299 191.03 64.2599 190.41 65.0299 190.41C65.7999 190.41 66.4299 191.04 66.4299 191.81Z" fill="white"/>
<path opacity="0.7" d="M77.5899 193.21C78.3631 193.21 78.9899 192.583 78.9899 191.81C78.9899 191.037 78.3631 190.41 77.5899 190.41C76.8167 190.41 76.1899 191.037 76.1899 191.81C76.1899 192.583 76.8167 193.21 77.5899 193.21Z" fill="white"/>
<path opacity="0.7" d="M91.55 191.81C91.55 192.58 90.92 193.21 90.15 193.21C89.38 193.21 88.75 192.59 88.75 191.81C88.75 191.03 89.38 190.41 90.15 190.41C90.93 190.41 91.55 191.04 91.55 191.81Z" fill="white"/>
<path opacity="0.7" d="M102.72 193.21C103.494 193.21 104.12 192.583 104.12 191.81C104.12 191.037 103.494 190.41 102.72 190.41C101.947 190.41 101.32 191.037 101.32 191.81C101.32 192.583 101.947 193.21 102.72 193.21Z" fill="white"/>
<path opacity="0.7" d="M116.68 191.81C116.68 192.58 116.05 193.21 115.28 193.21C114.51 193.21 113.88 192.59 113.88 191.81C113.88 191.03 114.51 190.41 115.28 190.41C116.06 190.41 116.68 191.04 116.68 191.81Z" fill="white"/>
<path opacity="0.7" d="M127.85 193.21C128.623 193.21 129.25 192.583 129.25 191.81C129.25 191.037 128.623 190.41 127.85 190.41C127.077 190.41 126.45 191.037 126.45 191.81C126.45 192.583 127.077 193.21 127.85 193.21Z" fill="white"/>
</g>
<g opacity="0.7">
<path opacity="0.7" d="M3.61005 202.97C3.61005 203.74 2.98005 204.37 2.21005 204.37C1.44005 204.37 0.810059 203.74 0.810059 202.97C0.810059 202.2 1.43005 201.57 2.21005 201.57C2.98005 201.58 3.61005 202.2 3.61005 202.97Z" fill="white"/>
<path opacity="0.7" d="M16.1701 202.97C16.1701 203.74 15.5501 204.37 14.7701 204.37C14.0001 204.37 13.3701 203.74 13.3701 202.97C13.3701 202.2 14.0001 201.57 14.7701 201.57C15.5501 201.58 16.1701 202.2 16.1701 202.97Z" fill="white"/>
<path opacity="0.7" d="M28.7302 202.97C28.7302 203.74 28.1002 204.37 27.3302 204.37C26.5602 204.37 25.9302 203.74 25.9302 202.97C25.9302 202.2 26.5502 201.57 27.3302 201.57C28.1102 201.58 28.7302 202.2 28.7302 202.97Z" fill="white"/>
<path opacity="0.7" d="M41.3 202.97C41.3 203.74 40.68 204.37 39.9 204.37C39.13 204.37 38.5 203.74 38.5 202.97C38.5 202.2 39.13 201.57 39.9 201.57C40.67 201.58 41.3 202.2 41.3 202.97Z" fill="white"/>
<path opacity="0.7" d="M53.86 202.97C53.86 203.74 53.2301 204.37 52.4601 204.37C51.6901 204.37 51.0601 203.74 51.0601 202.97C51.0601 202.2 51.6801 201.57 52.4601 201.57C53.2401 201.58 53.86 202.2 53.86 202.97Z" fill="white"/>
<path opacity="0.7" d="M66.4299 202.97C66.4299 203.74 65.7999 204.37 65.0299 204.37C64.2599 204.37 63.6299 203.74 63.6299 202.97C63.6299 202.2 64.2599 201.57 65.0299 201.57C65.7999 201.58 66.4299 202.2 66.4299 202.97Z" fill="white"/>
<path opacity="0.7" d="M78.9899 202.97C78.9899 203.74 78.3599 204.37 77.5899 204.37C76.8199 204.37 76.1899 203.74 76.1899 202.97C76.1899 202.2 76.8099 201.57 77.5899 201.57C78.3599 201.58 78.9899 202.2 78.9899 202.97Z" fill="white"/>
<path opacity="0.7" d="M91.55 202.97C91.55 203.74 90.92 204.37 90.15 204.37C89.38 204.37 88.75 203.74 88.75 202.97C88.75 202.2 89.38 201.57 90.15 201.57C90.93 201.58 91.55 202.2 91.55 202.97Z" fill="white"/>
<path opacity="0.7" d="M104.12 202.97C104.12 203.74 103.49 204.37 102.72 204.37C101.95 204.37 101.32 203.74 101.32 202.97C101.32 202.2 101.94 201.57 102.72 201.57C103.49 201.58 104.12 202.2 104.12 202.97Z" fill="white"/>
<path opacity="0.7" d="M116.68 202.97C116.68 203.74 116.05 204.37 115.28 204.37C114.51 204.37 113.88 203.74 113.88 202.97C113.88 202.2 114.51 201.57 115.28 201.57C116.06 201.58 116.68 202.2 116.68 202.97Z" fill="white"/>
<path opacity="0.7" d="M129.25 202.97C129.25 203.74 128.63 204.37 127.85 204.37C127.07 204.37 126.45 203.74 126.45 202.97C126.45 202.2 127.07 201.57 127.85 201.57C128.63 201.57 129.25 202.2 129.25 202.97Z" fill="white"/>
</g>
<g opacity="0.7">
<path opacity="0.7" d="M2.21005 215.54C2.98325 215.54 3.61005 214.913 3.61005 214.14C3.61005 213.367 2.98325 212.74 2.21005 212.74C1.43685 212.74 0.810059 213.367 0.810059 214.14C0.810059 214.913 1.43685 215.54 2.21005 215.54Z" fill="white"/>
<path opacity="0.7" d="M14.7701 215.54C15.5433 215.54 16.1701 214.913 16.1701 214.14C16.1701 213.367 15.5433 212.74 14.7701 212.74C13.9969 212.74 13.3701 213.367 13.3701 214.14C13.3701 214.913 13.9969 215.54 14.7701 215.54Z" fill="white"/>
<path opacity="0.7" d="M27.3399 215.54C28.1131 215.54 28.7399 214.913 28.7399 214.14C28.7399 213.367 28.1131 212.74 27.3399 212.74C26.5667 212.74 25.9399 213.367 25.9399 214.14C25.9399 214.913 26.5667 215.54 27.3399 215.54Z" fill="white"/>
<path opacity="0.7" d="M39.9 215.54C40.6732 215.54 41.3 214.913 41.3 214.14C41.3 213.367 40.6732 212.74 39.9 212.74C39.1268 212.74 38.5 213.367 38.5 214.14C38.5 214.913 39.1268 215.54 39.9 215.54Z" fill="white"/>
<path opacity="0.7" d="M52.4703 215.54C53.2435 215.54 53.8703 214.913 53.8703 214.14C53.8703 213.367 53.2435 212.74 52.4703 212.74C51.6971 212.74 51.0703 213.367 51.0703 214.14C51.0703 214.913 51.6971 215.54 52.4703 215.54Z" fill="white"/>
<path opacity="0.7" d="M66.4299 214.14C66.4299 214.91 65.7999 215.54 65.0299 215.54C64.2599 215.54 63.6299 214.91 63.6299 214.14C63.6299 213.37 64.2599 212.74 65.0299 212.74C65.7999 212.75 66.4299 213.37 66.4299 214.14Z" fill="white"/>
<path opacity="0.7" d="M77.5899 215.54C78.3631 215.54 78.9899 214.913 78.9899 214.14C78.9899 213.367 78.3631 212.74 77.5899 212.74C76.8167 212.74 76.1899 213.367 76.1899 214.14C76.1899 214.913 76.8167 215.54 77.5899 215.54Z" fill="white"/>
<path opacity="0.7" d="M91.55 214.14C91.55 214.91 90.92 215.54 90.15 215.54C89.38 215.54 88.75 214.91 88.75 214.14C88.75 213.37 89.38 212.74 90.15 212.74C90.93 212.75 91.55 213.37 91.55 214.14Z" fill="white"/>
<path opacity="0.7" d="M102.72 215.54C103.494 215.54 104.12 214.913 104.12 214.14C104.12 213.367 103.494 212.74 102.72 212.74C101.947 212.74 101.32 213.367 101.32 214.14C101.32 214.913 101.947 215.54 102.72 215.54Z" fill="white"/>
<path opacity="0.7" d="M116.68 214.14C116.68 214.91 116.05 215.54 115.28 215.54C114.51 215.54 113.88 214.91 113.88 214.14C113.88 213.37 114.51 212.74 115.28 212.74C116.06 212.75 116.68 213.37 116.68 214.14Z" fill="white"/>
<path opacity="0.7" d="M127.85 215.54C128.623 215.54 129.25 214.913 129.25 214.14C129.25 213.367 128.623 212.74 127.85 212.74C127.077 212.74 126.45 213.367 126.45 214.14C126.45 214.913 127.077 215.54 127.85 215.54Z" fill="white"/>
</g>
</g>
<path d="M172.23 377.7C173.401 377.7 174.35 376.751 174.35 375.58C174.35 374.409 173.401 373.46 172.23 373.46C171.059 373.46 170.11 374.409 170.11 375.58C170.11 376.751 171.059 377.7 172.23 377.7Z" fill="white"/>
<path d="M191.33 377.7C192.501 377.7 193.45 376.751 193.45 375.58C193.45 374.409 192.501 373.46 191.33 373.46C190.159 373.46 189.21 374.409 189.21 375.58C189.21 376.751 190.159 377.7 191.33 377.7Z" fill="white"/>
<path d="M210.43 377.7C211.601 377.7 212.55 376.751 212.55 375.58C212.55 374.409 211.601 373.46 210.43 373.46C209.259 373.46 208.31 374.409 208.31 375.58C208.31 376.751 209.259 377.7 210.43 377.7Z" fill="white"/>
<path d="M229.53 377.7C230.701 377.7 231.65 376.751 231.65 375.58C231.65 374.409 230.701 373.46 229.53 373.46C228.359 373.46 227.41 374.409 227.41 375.58C227.41 376.751 228.359 377.7 229.53 377.7Z" fill="white"/>
<path d="M250.75 375.58C250.75 376.75 249.8 377.7 248.63 377.7C247.46 377.7 246.51 376.75 246.51 375.58C246.51 374.41 247.46 373.46 248.63 373.46C249.8 373.46 250.75 374.41 250.75 375.58Z" fill="white"/>
<path d="M267.72 377.7C268.89 377.7 269.84 376.751 269.84 375.58C269.84 374.409 268.89 373.46 267.72 373.46C266.549 373.46 265.6 374.409 265.6 375.58C265.6 376.751 266.549 377.7 267.72 377.7Z" fill="white"/>
<path d="M286.82 377.7C287.991 377.7 288.94 376.751 288.94 375.58C288.94 374.409 287.991 373.46 286.82 373.46C285.649 373.46 284.7 374.409 284.7 375.58C284.7 376.751 285.649 377.7 286.82 377.7Z" fill="white"/>
<path d="M305.92 377.7C307.091 377.7 308.04 376.751 308.04 375.58C308.04 374.409 307.091 373.46 305.92 373.46C304.749 373.46 303.8 374.409 303.8 375.58C303.8 376.751 304.749 377.7 305.92 377.7Z" fill="white"/>
<path d="M325.02 377.7C326.191 377.7 327.14 376.751 327.14 375.58C327.14 374.409 326.191 373.46 325.02 373.46C323.849 373.46 322.9 374.409 322.9 375.58C322.9 376.751 323.849 377.7 325.02 377.7Z" fill="white"/>
<path d="M344.12 377.7C345.291 377.7 346.24 376.751 346.24 375.58C346.24 374.409 345.291 373.46 344.12 373.46C342.949 373.46 342 374.409 342 375.58C342 376.751 342.949 377.7 344.12 377.7Z" fill="white"/>
<path d="M363.22 377.7C364.39 377.7 365.34 376.751 365.34 375.58C365.34 374.409 364.39 373.46 363.22 373.46C362.049 373.46 361.1 374.409 361.1 375.58C361.1 376.751 362.049 377.7 363.22 377.7Z" fill="white"/>
<path d="M172.23 394.68C173.401 394.68 174.35 393.731 174.35 392.56C174.35 391.389 173.401 390.44 172.23 390.44C171.059 390.44 170.11 391.389 170.11 392.56C170.11 393.731 171.059 394.68 172.23 394.68Z" fill="white"/>
<path d="M191.33 394.68C192.501 394.68 193.45 393.731 193.45 392.56C193.45 391.389 192.501 390.44 191.33 390.44C190.159 390.44 189.21 391.389 189.21 392.56C189.21 393.731 190.159 394.68 191.33 394.68Z" fill="white"/>
<path d="M210.43 394.68C211.601 394.68 212.55 393.731 212.55 392.56C212.55 391.389 211.601 390.44 210.43 390.44C209.259 390.44 208.31 391.389 208.31 392.56C208.31 393.731 209.259 394.68 210.43 394.68Z" fill="white"/>
<path d="M229.53 394.68C230.701 394.68 231.65 393.731 231.65 392.56C231.65 391.389 230.701 390.44 229.53 390.44C228.359 390.44 227.41 391.389 227.41 392.56C227.41 393.731 228.359 394.68 229.53 394.68Z" fill="white"/>
<path d="M250.75 392.56C250.75 393.73 249.8 394.68 248.63 394.68C247.46 394.68 246.51 393.73 246.51 392.56C246.51 391.39 247.46 390.44 248.63 390.44C249.8 390.44 250.75 391.39 250.75 392.56Z" fill="white"/>
<path d="M267.72 394.68C268.89 394.68 269.84 393.731 269.84 392.56C269.84 391.389 268.89 390.44 267.72 390.44C266.549 390.44 265.6 391.389 265.6 392.56C265.6 393.731 266.549 394.68 267.72 394.68Z" fill="white"/>
<path d="M286.82 394.68C287.991 394.68 288.94 393.731 288.94 392.56C288.94 391.389 287.991 390.44 286.82 390.44C285.649 390.44 284.7 391.389 284.7 392.56C284.7 393.731 285.649 394.68 286.82 394.68Z" fill="white"/>
<path d="M305.92 394.68C307.091 394.68 308.04 393.731 308.04 392.56C308.04 391.389 307.091 390.44 305.92 390.44C304.749 390.44 303.8 391.389 303.8 392.56C303.8 393.731 304.749 394.68 305.92 394.68Z" fill="white"/>
<path d="M325.02 394.68C326.191 394.68 327.14 393.731 327.14 392.56C327.14 391.389 326.191 390.44 325.02 390.44C323.849 390.44 322.9 391.389 322.9 392.56C322.9 393.731 323.849 394.68 325.02 394.68Z" fill="white"/>
<path d="M344.12 394.68C345.291 394.68 346.24 393.731 346.24 392.56C346.24 391.389 345.291 390.44 344.12 390.44C342.949 390.44 342 391.389 342 392.56C342 393.731 342.949 394.68 344.12 394.68Z" fill="white"/>
<path d="M363.22 394.68C364.39 394.68 365.34 393.731 365.34 392.56C365.34 391.389 364.39 390.44 363.22 390.44C362.049 390.44 361.1 391.389 361.1 392.56C361.1 393.731 362.049 394.68 363.22 394.68Z" fill="white"/>
<path d="M172.23 411.65C173.401 411.65 174.35 410.701 174.35 409.53C174.35 408.359 173.401 407.41 172.23 407.41C171.059 407.41 170.11 408.359 170.11 409.53C170.11 410.701 171.059 411.65 172.23 411.65Z" fill="white"/>
<path d="M191.33 411.65C192.501 411.65 193.45 410.701 193.45 409.53C193.45 408.359 192.501 407.41 191.33 407.41C190.159 407.41 189.21 408.359 189.21 409.53C189.21 410.701 190.159 411.65 191.33 411.65Z" fill="white"/>
<path d="M210.43 411.65C211.601 411.65 212.55 410.701 212.55 409.53C212.55 408.359 211.601 407.41 210.43 407.41C209.259 407.41 208.31 408.359 208.31 409.53C208.31 410.701 209.259 411.65 210.43 411.65Z" fill="white"/>
<path d="M229.53 411.65C230.701 411.65 231.65 410.701 231.65 409.53C231.65 408.359 230.701 407.41 229.53 407.41C228.359 407.41 227.41 408.359 227.41 409.53C227.41 410.701 228.359 411.65 229.53 411.65Z" fill="white"/>
<path d="M250.75 409.53C250.75 410.7 249.8 411.65 248.63 411.65C247.46 411.65 246.51 410.7 246.51 409.53C246.51 408.36 247.46 407.41 248.63 407.41C249.8 407.41 250.75 408.36 250.75 409.53Z" fill="white"/>
<path d="M267.72 411.65C268.89 411.65 269.84 410.701 269.84 409.53C269.84 408.359 268.89 407.41 267.72 407.41C266.549 407.41 265.6 408.359 265.6 409.53C265.6 410.701 266.549 411.65 267.72 411.65Z" fill="white"/>
<path d="M286.82 411.65C287.991 411.65 288.94 410.701 288.94 409.53C288.94 408.359 287.991 407.41 286.82 407.41C285.649 407.41 284.7 408.359 284.7 409.53C284.7 410.701 285.649 411.65 286.82 411.65Z" fill="white"/>
<path d="M305.92 411.65C307.091 411.65 308.04 410.701 308.04 409.53C308.04 408.359 307.091 407.41 305.92 407.41C304.749 407.41 303.8 408.359 303.8 409.53C303.8 410.701 304.749 411.65 305.92 411.65Z" fill="white"/>
<path d="M325.02 411.65C326.191 411.65 327.14 410.701 327.14 409.53C327.14 408.359 326.191 407.41 325.02 407.41C323.849 407.41 322.9 408.359 322.9 409.53C322.9 410.701 323.849 411.65 325.02 411.65Z" fill="white"/>
<path d="M344.12 411.65C345.291 411.65 346.24 410.701 346.24 409.53C346.24 408.359 345.291 407.41 344.12 407.41C342.949 407.41 342 408.359 342 409.53C342 410.701 342.949 411.65 344.12 411.65Z" fill="white"/>
<path d="M363.22 411.65C364.39 411.65 365.34 410.701 365.34 409.53C365.34 408.359 364.39 407.41 363.22 407.41C362.049 407.41 361.1 408.359 361.1 409.53C361.1 410.701 362.049 411.65 363.22 411.65Z" fill="white"/>
<path d="M174.35 426.51C174.35 427.68 173.4 428.63 172.23 428.63C171.06 428.63 170.11 427.68 170.11 426.51C170.11 425.34 171.06 424.39 172.23 424.39C173.4 424.39 174.35 425.34 174.35 426.51Z" fill="white"/>
<path d="M193.45 426.51C193.45 427.68 192.5 428.63 191.33 428.63C190.16 428.63 189.21 427.68 189.21 426.51C189.21 425.34 190.16 424.39 191.33 424.39C192.5 424.39 193.45 425.34 193.45 426.51Z" fill="white"/>
<path d="M212.55 426.51C212.55 427.68 211.6 428.63 210.43 428.63C209.26 428.63 208.31 427.68 208.31 426.51C208.31 425.34 209.26 424.39 210.43 424.39C211.6 424.39 212.55 425.34 212.55 426.51Z" fill="white"/>
<path d="M231.65 426.51C231.65 427.68 230.7 428.63 229.53 428.63C228.36 428.63 227.41 427.68 227.41 426.51C227.41 425.34 228.36 424.39 229.53 424.39C230.7 424.39 231.65 425.34 231.65 426.51Z" fill="white"/>
<path d="M250.75 426.51C250.75 427.68 249.8 428.63 248.63 428.63C247.46 428.63 246.51 427.68 246.51 426.51C246.51 425.34 247.46 424.39 248.63 424.39C249.8 424.39 250.75 425.34 250.75 426.51Z" fill="white"/>
<path d="M269.85 426.51C269.85 427.68 268.9 428.63 267.73 428.63C266.56 428.63 265.61 427.68 265.61 426.51C265.61 425.34 266.56 424.39 267.73 424.39C268.89 424.39 269.85 425.34 269.85 426.51Z" fill="white"/>
<path d="M288.94 426.51C288.94 427.68 287.99 428.63 286.82 428.63C285.65 428.63 284.7 427.68 284.7 426.51C284.7 425.34 285.65 424.39 286.82 424.39C287.99 424.39 288.94 425.34 288.94 426.51Z" fill="white"/>
<path d="M308.04 426.51C308.04 427.68 307.09 428.63 305.92 428.63C304.75 428.63 303.8 427.68 303.8 426.51C303.8 425.34 304.75 424.39 305.92 424.39C307.09 424.39 308.04 425.34 308.04 426.51Z" fill="white"/>
<path d="M327.14 426.51C327.14 427.68 326.19 428.63 325.02 428.63C323.85 428.63 322.9 427.68 322.9 426.51C322.9 425.34 323.85 424.39 325.02 424.39C326.19 424.39 327.14 425.34 327.14 426.51Z" fill="white"/>
<path d="M346.24 426.51C346.24 427.68 345.29 428.63 344.12 428.63C342.95 428.63 342 427.68 342 426.51C342 425.34 342.95 424.39 344.12 424.39C345.29 424.39 346.24 425.34 346.24 426.51Z" fill="white"/>
<path d="M365.34 426.51C365.34 427.68 364.39 428.63 363.22 428.63C362.05 428.63 361.1 427.68 361.1 426.51C361.1 425.34 362.05 424.39 363.22 424.39C364.39 424.39 365.34 425.34 365.34 426.51Z" fill="white"/>
<path d="M174.35 443.49C174.35 444.66 173.4 445.61 172.23 445.61C171.06 445.61 170.11 444.66 170.11 443.49C170.11 442.32 171.06 441.37 172.23 441.37C173.4 441.36 174.35 442.31 174.35 443.49Z" fill="white"/>
<path d="M193.45 443.49C193.45 444.66 192.5 445.61 191.33 445.61C190.16 445.61 189.21 444.66 189.21 443.49C189.21 442.32 190.16 441.37 191.33 441.37C192.5 441.36 193.45 442.31 193.45 443.49Z" fill="white"/>
<path d="M212.55 443.49C212.55 444.66 211.6 445.61 210.43 445.61C209.26 445.61 208.31 444.66 208.31 443.49C208.31 442.32 209.26 441.37 210.43 441.37C211.6 441.36 212.55 442.31 212.55 443.49Z" fill="white"/>
<path d="M231.65 443.49C231.65 444.66 230.7 445.61 229.53 445.61C228.36 445.61 227.41 444.66 227.41 443.49C227.41 442.32 228.36 441.37 229.53 441.37C230.7 441.36 231.65 442.31 231.65 443.49Z" fill="white"/>
<path d="M250.75 443.49C250.75 444.66 249.8 445.61 248.63 445.61C247.46 445.61 246.51 444.66 246.51 443.49C246.51 442.32 247.46 441.37 248.63 441.37C249.8 441.36 250.75 442.31 250.75 443.49Z" fill="white"/>
<path d="M269.85 443.49C269.85 444.66 268.9 445.61 267.73 445.61C266.56 445.61 265.61 444.66 265.61 443.49C265.61 442.32 266.56 441.37 267.73 441.37C268.89 441.36 269.85 442.31 269.85 443.49Z" fill="white"/>
<path d="M288.94 443.49C288.94 444.66 287.99 445.61 286.82 445.61C285.65 445.61 284.7 444.66 284.7 443.49C284.7 442.32 285.65 441.37 286.82 441.37C287.99 441.36 288.94 442.31 288.94 443.49Z" fill="white"/>
<path d="M308.04 443.49C308.04 444.66 307.09 445.61 305.92 445.61C304.75 445.61 303.8 444.66 303.8 443.49C303.8 442.32 304.75 441.37 305.92 441.37C307.09 441.37 308.04 442.31 308.04 443.49Z" fill="white"/>
<path d="M327.14 443.49C327.14 444.66 326.19 445.61 325.02 445.61C323.85 445.61 322.9 444.66 322.9 443.49C322.9 442.32 323.85 441.37 325.02 441.37C326.19 441.36 327.14 442.31 327.14 443.49Z" fill="white"/>
<path d="M346.24 443.49C346.24 444.66 345.29 445.61 344.12 445.61C342.95 445.61 342 444.66 342 443.49C342 442.32 342.95 441.37 344.12 441.37C345.29 441.36 346.24 442.31 346.24 443.49Z" fill="white"/>
<path d="M365.34 443.49C365.34 444.66 364.39 445.61 363.22 445.61C362.05 445.61 361.1 444.66 361.1 443.49C361.1 442.32 362.05 441.37 363.22 441.37C364.39 441.36 365.34 442.31 365.34 443.49Z" fill="white"/>
<path d="M407.92 84.84C355.58 84.84 313 42.26 313 -10.08C313 -62.42 355.58 -105 407.92 -105C460.26 -105 502.84 -62.42 502.84 -10.08C502.83 42.26 460.25 84.84 407.92 84.84ZM407.92 -101.81C357.34 -101.81 316.19 -60.66 316.19 -10.08C316.19 40.5 357.34 81.65 407.92 81.65C458.5 81.65 499.65 40.5 499.65 -10.08C499.65 -60.66 458.5 -101.81 407.92 -101.81Z" fill="white"/>
<path d="M407.92 74.47C361.3 74.47 323.37 36.54 323.37 -10.08C323.37 -56.7 361.3 -94.63 407.92 -94.63C454.54 -94.63 492.47 -56.7 492.47 -10.08C492.46 36.54 454.53 74.47 407.92 74.47ZM407.92 -91.44C363.06 -91.44 326.56 -54.94 326.56 -10.08C326.56 34.78 363.06 71.28 407.92 71.28C452.78 71.28 489.28 34.78 489.28 -10.08C489.28 -54.94 452.78 -91.44 407.92 -91.44Z" fill="white"/>
<path d="M407.92 64.1C367.02 64.1 333.74 30.82 333.74 -10.08C333.74 -50.98 367.02 -84.26 407.92 -84.26C448.82 -84.26 482.1 -50.98 482.1 -10.08C482.09 30.82 448.82 64.1 407.92 64.1ZM407.92 -81.07C368.77 -81.07 336.93 -49.22 336.93 -10.08C336.93 29.07 368.78 60.91 407.92 60.91C447.06 60.91 478.91 29.06 478.91 -10.08C478.91 -49.22 447.06 -81.07 407.92 -81.07Z" fill="white"/>
<path d="M407.92 53.73C372.74 53.73 344.11 25.11 344.11 -10.08C344.11 -45.26 372.73 -73.89 407.92 -73.89C443.1 -73.89 471.73 -45.27 471.73 -10.08C471.72 25.11 443.1 53.73 407.92 53.73ZM407.92 -70.7C374.49 -70.7 347.3 -43.5 347.3 -10.08C347.3 23.35 374.5 50.54 407.92 50.54C441.34 50.54 468.54 23.34 468.54 -10.08C468.54 -43.5 441.34 -70.7 407.92 -70.7Z" fill="white"/>
<path d="M407.92 43.36C378.45 43.36 354.48 19.39 354.48 -10.08C354.48 -39.55 378.45 -63.52 407.92 -63.52C437.39 -63.52 461.36 -39.55 461.36 -10.08C461.35 19.39 437.38 43.36 407.92 43.36ZM407.92 -60.33C380.21 -60.33 357.67 -37.79 357.67 -10.08C357.67 17.63 380.21 40.18 407.92 40.18C435.63 40.18 458.17 17.64 458.17 -10.08C458.17 -37.79 435.63 -60.33 407.92 -60.33Z" fill="white"/>
<path d="M407.92 32.99C384.17 32.99 364.85 13.67 364.85 -10.08C364.85 -33.83 384.17 -53.15 407.92 -53.15C431.67 -53.15 450.99 -33.83 450.99 -10.08C450.99 13.67 431.66 32.99 407.92 32.99ZM407.92 -49.96C385.93 -49.96 368.03 -32.07 368.03 -10.07C368.03 11.92 385.92 29.82 407.92 29.82C429.92 29.82 447.81 11.93 447.81 -10.07C447.8 -32.07 429.91 -49.96 407.92 -49.96Z" fill="white"/>
</svg>
