<svg width="2172" height="419" viewBox="0 0 2172 419" fill="none" xmlns="http://www.w3.org/2000/svg">
<mask id="mask0_2001_3569" style="mask-type:alpha" maskUnits="userSpaceOnUse" x="0" y="0" width="2172" height="419">
<rect width="2172" height="419" fill="#C4C4C4"/>
</mask>
<g mask="url(#mask0_2001_3569)">
<path d="M1232.68 143.798C1246.55 143.798 1260.41 143.798 1274.27 143.798C1277.74 143.798 1281.06 143.939 1284.53 144.925C1298.1 149.013 1305.03 161.559 1304.74 171.145C1304.6 177.911 1304.74 184.677 1304.74 191.444C1304.74 208.5 1304.74 225.698 1304.74 242.755C1304.74 244.305 1304.74 245.856 1304.74 247.547C1304.74 248.957 1303.88 249.521 1302.58 249.521C1302.29 249.521 1302.14 249.521 1301.86 249.521C1291.75 249.521 1281.49 249.521 1271.39 249.521C1268.93 249.521 1268.5 249.098 1268.5 246.843C1268.5 245.01 1268.5 243.178 1268.5 241.486C1268.5 220.764 1268.5 200.042 1268.5 179.321C1268.5 177.77 1268.5 176.219 1268.5 174.528C1268.5 172.836 1267.49 172.131 1265.9 172.131C1264.74 172.131 1263.59 172.131 1262.43 172.131C1242.65 172.131 1222.72 172.131 1202.94 172.131C1201.49 172.131 1200.19 172.131 1198.75 172.131C1197.3 172.131 1196.73 172.977 1196.73 174.246C1196.73 176.078 1196.73 177.911 1196.73 179.603C1196.73 200.606 1196.73 221.469 1196.73 242.473C1196.73 244.305 1196.73 246.138 1196.58 247.829C1196.58 248.252 1195.86 248.957 1195.28 249.098C1194.71 249.38 1193.98 249.239 1193.26 249.239C1183.3 249.239 1173.48 249.239 1163.51 249.239C1160.77 249.239 1160.48 248.957 1160.48 245.997C1160.48 234.015 1160.48 222.174 1160.48 210.192C1160.48 198.069 1160.48 185.805 1160.48 173.682C1160.48 169.876 1160.63 166.07 1162.07 162.405C1166.11 151.269 1176.08 143.798 1188.06 143.516C1202.79 143.657 1217.81 143.939 1232.68 143.798C1232.68 143.798 1232.68 143.939 1232.68 143.798Z" fill="white"/>
<path d="M1059.25 249.663C1044.67 249.663 1030.23 249.804 1015.64 249.663C1002.36 249.522 991.671 241.487 987.917 229.223C986.906 225.699 986.906 222.034 986.906 218.51C986.906 204.131 986.906 189.753 986.906 175.234C986.906 165.789 986.906 156.344 986.906 146.9C986.906 144.362 987.195 144.08 989.65 144.08C1000.05 144.08 1010.44 144.08 1020.84 144.08C1022.57 144.08 1023.44 144.785 1023.3 146.477C1023.3 148.309 1023.3 150.142 1023.3 151.833C1023.3 172.273 1023.3 192.854 1023.3 213.294C1023.3 215.127 1023.3 216.959 1023.3 218.651C1023.3 220.201 1023.87 221.188 1025.61 221.188C1026.47 221.188 1027.48 221.188 1028.35 221.188C1048.86 221.188 1069.36 221.188 1090.01 221.188C1090.88 221.188 1091.89 221.188 1092.76 221.188C1094.49 221.188 1095.21 220.201 1095.07 218.651C1095.07 216.818 1095.07 214.986 1095.07 213.294C1095.07 192.572 1095.07 171.85 1095.07 151.129C1095.07 149.296 1095.07 147.464 1095.21 145.772C1095.21 144.785 1095.93 144.221 1096.94 144.08C1097.81 144.08 1098.82 143.939 1099.69 143.939C1108.64 143.939 1117.74 143.939 1126.69 143.939C1131.46 143.939 1131.46 143.939 1131.46 148.873C1131.46 152.538 1131.46 156.062 1131.46 159.727C1131.46 179.744 1131.46 199.761 1131.46 219.919C1131.46 223.584 1131.31 227.108 1130.01 230.633C1125.97 241.91 1115.72 249.663 1103.44 249.804C1088.86 249.663 1073.98 249.663 1059.25 249.663Z" fill="white"/>
<path d="M546.897 143.797C561.193 143.797 575.49 143.797 589.786 143.797C596.284 143.797 602.061 145.488 607.259 149.154C614.335 154.228 618.379 161.135 618.956 169.734C619.101 171.144 619.101 172.413 619.101 173.822C619.101 197.222 619.101 220.622 619.101 244.023C619.101 244.868 619.101 245.855 619.101 246.701C618.956 249.238 618.812 249.52 616.357 249.52C609.425 249.52 602.494 249.52 595.562 249.52C592.097 249.52 588.631 249.52 585.165 249.52C583.432 249.52 582.71 248.674 582.71 246.983C582.71 245.15 582.71 243.318 582.71 241.626C582.71 220.904 582.71 200.183 582.71 179.461C582.71 177.628 582.71 175.796 582.566 174.104C582.566 173.117 581.988 172.413 580.977 172.413C579.822 172.413 578.667 172.272 577.511 172.272C557.15 172.272 536.933 172.272 516.572 172.272C515.85 172.272 515.128 172.272 514.55 172.272C511.084 172.413 510.94 172.554 510.795 175.655C510.795 177.205 510.795 178.756 510.795 180.448C510.795 201.169 510.795 221.891 510.795 242.613C510.795 244.164 510.795 245.714 510.795 247.406C510.795 249.097 509.929 249.802 508.196 249.802C497.799 249.802 487.402 249.802 477.004 249.802C475.416 249.802 474.405 249.097 474.405 247.406C474.405 245.996 474.405 244.727 474.405 243.318C474.405 220.341 474.405 197.363 474.405 174.386C474.405 171.285 474.405 168.184 475.271 165.083C478.593 152.255 491.156 143.797 502.564 144.079C502.997 144.079 503.431 144.079 504.008 144.079C518.305 143.797 532.601 143.797 546.897 143.797Z" fill="white"/>
<path d="M720.041 249.663C705.456 249.663 691.015 249.804 676.43 249.663C662.711 249.522 651.592 240.782 648.415 227.954C647.838 225.84 647.693 223.443 647.693 221.329C647.693 196.942 647.693 172.696 647.693 148.309C647.693 147.886 647.693 147.464 647.693 146.9C647.838 144.362 648.126 143.939 650.437 143.939C660.834 143.939 671.231 143.939 681.629 143.939C683.362 143.939 684.084 144.785 684.084 146.477C684.084 148.309 684.084 150.142 684.084 151.833C684.084 172.555 684.084 193.277 684.084 213.999C684.084 215.831 684.084 217.664 684.084 219.355C684.084 220.342 684.661 221.047 685.817 221.047C686.972 221.188 688.127 221.188 689.282 221.188C709.788 221.188 730.294 221.188 750.944 221.188C751.811 221.188 752.821 221.188 753.688 221.188C755.421 221.188 755.998 220.201 755.998 218.651C755.998 214.563 755.998 210.475 755.998 206.528C755.998 188.061 755.998 169.595 755.998 151.129C755.998 149.296 755.998 147.464 756.143 145.772C756.143 144.785 756.865 144.221 757.876 144.08C758.742 143.939 759.753 143.939 760.619 143.939C769.861 143.939 779.103 143.939 788.345 143.939C792.389 143.939 792.389 144.08 792.389 148.168C792.389 153.102 792.389 158.036 792.389 162.97C792.389 181.718 792.389 200.325 792.389 219.073C792.389 222.457 792.389 225.84 791.378 229.082C787.912 240.923 777.082 249.24 764.374 249.522C763.941 249.522 763.507 249.522 762.93 249.522C748.634 249.663 734.337 249.663 720.041 249.663Z" fill="white"/>
<path d="M889.719 143.797C910.225 143.797 930.73 143.797 951.236 143.797C953.113 143.797 954.991 143.797 956.724 143.938C957.157 143.938 957.734 144.643 958.023 145.207C958.312 145.489 958.168 146.053 958.168 146.476C958.168 154.088 958.168 161.841 958.168 169.453C958.168 171.708 957.59 172.131 955.28 172.131C944.16 172.131 933.185 172.131 922.066 172.131C918.311 172.131 914.701 172.131 910.947 172.131C908.203 172.131 907.914 172.413 907.914 175.373C907.914 195.249 907.914 214.984 907.914 234.86C907.914 238.948 907.914 242.895 907.914 246.983C907.914 248.675 907.048 249.38 905.315 249.38C894.773 249.38 884.087 249.38 873.545 249.38C871.812 249.38 871.09 248.393 871.09 246.701C871.09 244.869 871.09 243.036 871.09 241.345C871.09 220.623 871.09 199.901 871.09 179.179C871.09 177.347 871.09 175.514 870.946 173.823C870.946 172.695 870.224 172.272 869.213 172.131C867.624 171.99 866.036 171.99 864.303 171.99C852.029 171.99 839.898 171.99 827.624 171.99C826.035 171.99 824.447 171.99 822.714 171.99C821.27 171.99 820.692 171.144 820.692 169.876C820.692 169.594 820.692 169.453 820.692 169.171C820.692 161.559 820.692 153.806 820.692 146.194C820.692 144.643 821.27 143.656 823.003 143.656C824.88 143.656 826.757 143.656 828.49 143.656C849.14 143.797 869.357 143.797 889.719 143.797Z" fill="white"/>
<path d="M109.508 32.8498C122.237 24.5664 135.814 24.5664 149.9 29.2051C179.26 39.1452 208.791 48.9195 238.151 58.8596C259.874 66.149 281.598 73.7697 303.491 80.5621C316.049 84.5381 323.347 92.8215 327.25 104.418C329.966 112.536 331.324 120.819 330.814 129.434C322.668 132.913 315.54 127.777 307.903 126.949C306.545 126.783 305.357 126.452 304 126.121C254.783 114.855 205.227 104.087 156.01 92.8215C148.373 91.1648 147.694 91.8275 147.524 99.6138C147.354 107.235 147.524 114.855 148.203 122.642C147.354 135.729 148.203 148.817 147.694 162.071C148.203 202.659 147.863 243.248 147.863 283.836C147.863 286.156 147.694 288.641 146.675 290.794C143.96 294.77 139.378 294.77 135.305 295.599C121.897 297.918 108.32 299.409 94.7432 301.397C91.6883 301.397 88.2941 302.225 87.7849 297.752C88.8032 292.617 88.9729 287.315 88.9729 282.014C88.9729 214.918 88.9729 147.657 88.9729 80.5621C88.9729 69.7937 90.67 59.5223 94.9129 49.5822C97.9677 42.2928 102.38 36.3288 109.508 32.8498Z" fill="#0BAE8F"/>
<path d="M88.295 298.416C90.1619 300.239 92.5379 299.41 94.7441 299.576C114.091 300.736 132.42 306.7 151.089 310.841C181.637 317.468 212.186 324.592 242.734 331.384C251.22 333.372 252.068 332.544 252.068 323.929C252.068 316.805 252.917 309.682 249.183 303.055C250.032 301.398 251.559 300.239 252.578 298.748C254.953 286.654 254.105 274.56 253.087 262.466C252.747 258.325 251.899 254.183 251.899 249.876C251.899 214.754 251.899 179.633 251.899 144.345C251.899 140.701 251.559 136.89 253.256 133.411C254.953 130.595 257.839 129.601 260.724 129.27C275.489 127.779 290.084 123.306 305.189 124.631C306.207 124.797 307.225 124.797 308.243 124.962C311.129 127.944 310.789 131.92 310.789 135.565C310.789 206.471 310.959 277.542 310.789 348.448C310.789 364.518 306.886 379.428 293.478 390.527C289.236 393.344 284.314 395 279.562 396.657C272.434 399.142 265.136 398.645 257.839 397.32C254.444 396.657 251.05 395.663 247.656 394.503C197.251 377.605 146.846 360.542 96.4413 343.809C84.5613 339.833 77.2637 332.378 73.1905 321.278C70.1357 312.664 68.778 303.883 68.9477 294.772C76.2454 291.79 82.3551 294.275 88.295 298.416Z" fill="#25E305"/>
<path d="M293.309 390.692C292.461 389.698 292.8 388.704 293.649 387.876C304.68 376.942 308.074 363.357 308.074 348.778C308.244 283.505 308.244 218.232 308.244 152.959C308.244 143.682 308.244 134.404 308.244 125.127C314.523 126.452 320.633 127.778 326.912 129.103C328.27 129.434 329.628 129.269 330.816 129.434C337.095 131.919 343.884 132.748 350.503 134.404C358.309 136.227 366.286 137.883 374.262 139.706C377.657 140.534 377.996 141.031 378.166 144.676C378.166 146.001 378.166 147.326 378.166 148.652C378.166 207.132 378.166 265.613 378.166 324.094C378.166 330.555 377.148 336.684 374.602 342.648C370.359 352.92 362.892 360.375 352.539 365.014C340.659 370.315 328.949 375.451 317.069 380.752C309.262 384.065 301.286 387.213 293.309 390.692Z" fill="#158000"/>
<path d="M88.294 298.413C83.8815 297.584 79.4689 296.756 75.0564 295.596C73.0198 295.099 70.9833 294.768 68.777 294.934C59.7822 292.78 50.9571 290.626 41.9623 288.638C36.7012 287.479 31.4401 286.319 26.1789 285.159C22.4452 284.331 21.7664 283.337 21.5967 279.692C21.5967 278.367 21.5967 277.042 21.5967 275.716C21.5967 217.401 21.5967 159.252 21.5967 100.937C21.5967 96.1326 22.2755 91.3282 23.6332 86.8552C27.0275 75.4241 33.9858 66.4781 45.0171 61.1767C54.1816 56.7037 63.6856 52.7277 73.0198 48.4203C83.3723 43.7816 93.7248 39.3086 104.247 34.6699C105.944 34.0072 107.472 32.6819 109.508 33.0132C107.302 36.3266 104.077 38.8116 101.871 42.125C97.4585 48.586 94.9128 55.7097 93.046 63.1647C91.5186 69.4601 91.5186 75.7555 91.5186 82.0508C91.5186 150.803 91.5186 219.555 91.5186 288.141C91.5186 290.461 91.5186 292.946 91.3488 295.265C91.3488 297.253 89.9911 297.916 88.294 298.413Z" fill="#05FCCE"/>
<path d="M233.4 135.896C221.181 133.908 209.131 131.754 196.912 129.766C180.28 126.95 163.478 124.299 146.846 121.483C145.828 119.826 145.149 118.17 145.149 116.182C145.149 108.229 145.149 100.277 145.149 92.3254C145.149 89.012 145.828 88.515 149.053 89.1777C152.447 89.8404 156.011 90.5031 159.405 91.3314C182.316 96.4671 205.228 101.768 228.139 106.904C249.183 111.708 270.228 116.347 291.272 121.152C296.024 122.146 300.946 122.311 305.189 124.796C303.152 125.625 301.116 126.122 298.909 126.453C289.236 127.778 279.732 129.104 270.058 130.595C264.967 131.257 259.875 132.086 254.784 132.914C247.995 136.062 241.037 138.381 233.4 135.896Z" fill="#03826E"/>
<path d="M166.192 288.475C175.356 290.131 184.69 291.788 194.025 293.279C211.166 296.095 228.476 298.912 245.617 301.728C246.975 301.894 248.163 302.556 249.521 302.888C250.369 303.385 251.218 304.213 252.236 304.544C253.594 305.207 254.443 306.035 254.443 307.526C254.443 315.975 254.443 324.425 254.443 332.874C254.443 335.027 253.424 335.69 251.388 335.193C245.278 333.868 239.338 332.708 233.228 331.217C214.39 327.075 195.382 322.768 176.544 318.46C158.894 314.484 141.414 310.343 123.763 306.367C114.769 304.379 105.774 302.556 96.9486 300.734C96.2698 300.568 95.7606 299.74 95.0818 299.409C95.7606 299.077 96.4395 298.415 97.1183 298.249C113.241 295.93 129.194 293.61 145.317 291.457C151.596 287.481 158.724 285.99 166.192 288.475Z" fill="#1CAF01"/>
<path d="M166.194 288.473C159.066 289.467 152.108 290.461 144.98 291.621C144.98 251.695 144.98 211.769 144.98 171.678C144.98 168.199 145.149 164.72 145.149 161.406C151.089 161.903 157.029 162.4 162.969 163.063C165.685 163.394 166.024 163.891 166.194 166.542C166.364 168.696 166.194 170.684 166.194 172.837C166.194 211.438 166.194 249.873 166.194 288.473Z" fill="#158000"/>
<path d="M233.399 135.896C240.527 134.405 247.485 132.914 254.952 132.914C254.952 144.345 254.782 155.611 254.782 167.042C254.782 195.536 254.782 224.197 254.782 252.692C254.782 256.171 254.613 259.484 255.631 262.963C255.97 264.123 255.97 265.614 255.97 266.939C255.97 277.707 255.97 288.642 255.97 299.41C255.97 300.404 255.461 301.398 255.122 302.392C254.952 292.618 254.782 282.843 254.782 273.069C254.613 262.135 255.801 263.626 245.618 262.797C241.884 262.466 238.151 261.638 234.417 260.975C232.55 257.165 233.568 253.189 233.568 249.378C233.399 214.754 233.568 180.129 233.568 145.67C233.568 142.191 233.399 139.044 233.399 135.896Z" fill="#01B396"/>
<path d="M544.629 349.551V344.492H555.111C557.645 344.492 559.89 344.098 561.849 343.311C563.845 342.487 565.534 341.362 566.916 339.938C568.337 338.514 569.412 336.846 570.141 334.935C570.871 333.024 571.236 330.962 571.236 328.751C571.236 326.427 570.871 324.329 570.141 322.455C569.412 320.544 568.337 318.895 566.916 317.508C565.534 316.084 563.845 314.997 561.849 314.247C559.89 313.498 557.645 313.123 555.111 313.123H544.629V308.064H554.535C558.336 308.064 561.637 308.644 564.44 309.806C567.243 310.931 569.565 312.467 571.408 314.416C573.29 316.327 574.691 318.482 575.612 320.881C576.534 323.242 576.994 325.659 576.994 328.133V329.369C576.994 331.768 576.534 334.167 575.612 336.565C574.691 338.964 573.29 341.137 571.408 343.086C569.565 345.035 567.243 346.609 564.44 347.808C561.637 348.97 558.336 349.551 554.535 349.551H544.629ZM540.137 349.551V308.064H545.781V349.551H540.137Z" fill="white"/>
<path d="M585.842 349.326V319.307H591.371V349.326H585.842ZM581.12 323.579V319.307H591.371V323.579H581.12ZM587.397 314.472C586.169 314.472 585.247 314.154 584.633 313.516C584.057 312.879 583.769 312.074 583.769 311.099C583.769 310.125 584.057 309.319 584.633 308.682C585.247 308.045 586.169 307.726 587.397 307.726C588.626 307.726 589.528 308.045 590.104 308.682C590.718 309.319 591.025 310.125 591.025 311.099C591.025 312.074 590.718 312.879 590.104 313.516C589.528 314.154 588.626 314.472 587.397 314.472Z" fill="white"/>
<path d="M613.154 361.019C611.733 361.019 610.293 360.963 608.834 360.851C607.414 360.738 606.051 360.588 604.746 360.401V355.847C606.128 356.035 607.567 356.185 609.065 356.297C610.6 356.447 612.04 356.522 613.384 356.522C616.187 356.522 618.413 356.147 620.064 355.398C621.754 354.685 622.963 353.542 623.692 351.968C624.46 350.432 624.844 348.445 624.844 346.009V340.275L626.687 336.003C626.572 339.039 625.919 341.568 624.729 343.592C623.539 345.578 621.984 347.078 620.064 348.089C618.183 349.064 616.091 349.551 613.787 349.551C611.637 349.551 609.66 349.158 607.855 348.371C606.089 347.546 604.554 346.422 603.248 344.998C601.981 343.573 600.983 341.943 600.254 340.107C599.563 338.233 599.217 336.265 599.217 334.204V333.192C599.217 331.093 599.582 329.145 600.311 327.346C601.041 325.509 602.058 323.916 603.363 322.567C604.669 321.218 606.224 320.169 608.028 319.419C609.871 318.67 611.887 318.295 614.075 318.295C616.647 318.295 618.913 318.838 620.871 319.925C622.829 320.975 624.364 322.53 625.478 324.591C626.629 326.615 627.263 329.107 627.378 332.068L625.766 332.124V319.307H630.142V345.785C630.142 349.382 629.566 352.287 628.415 354.498C627.301 356.747 625.497 358.396 623.001 359.445C620.544 360.494 617.262 361.019 613.154 361.019ZM614.824 344.604C616.667 344.604 618.337 344.211 619.834 343.424C621.37 342.636 622.579 341.512 623.462 340.051C624.383 338.551 624.844 336.771 624.844 334.71V332.124C624.844 330.1 624.364 328.395 623.404 327.008C622.483 325.622 621.274 324.572 619.776 323.86C618.279 323.148 616.647 322.792 614.881 322.792C612.885 322.792 611.119 323.242 609.583 324.141C608.047 325.041 606.857 326.315 606.013 327.964C605.168 329.576 604.746 331.487 604.746 333.698C604.746 335.909 605.168 337.839 606.013 339.488C606.896 341.137 608.086 342.412 609.583 343.311C611.119 344.173 612.866 344.604 614.824 344.604Z" fill="white"/>
<path d="M641.339 349.326V319.307H646.868V349.326H641.339ZM636.617 323.579V319.307H646.868V323.579H636.617ZM642.894 314.472C641.666 314.472 640.744 314.154 640.13 313.516C639.554 312.879 639.266 312.074 639.266 311.099C639.266 310.125 639.554 309.319 640.13 308.682C640.744 308.045 641.666 307.726 642.894 307.726C644.123 307.726 645.025 308.045 645.601 308.682C646.215 309.319 646.522 310.125 646.522 311.099C646.522 312.074 646.215 312.879 645.601 313.516C645.025 314.154 644.123 314.472 642.894 314.472Z" fill="white"/>
<path d="M668.996 349.664C666.693 349.664 664.696 349.345 663.007 348.708C661.356 348.071 660.07 346.984 659.148 345.447C658.265 343.873 657.824 341.756 657.824 339.095V310.2H663.122V339.769C663.122 341.381 663.564 342.636 664.447 343.536C665.368 344.398 666.654 344.829 668.305 344.829H673.718V349.664H668.996ZM652.526 323.354V319.307H673.718V323.354H652.526Z" fill="white"/>
<path d="M699.487 349.326V340.332H698.565V329.932C698.565 327.87 698.009 326.315 696.895 325.266C695.82 324.216 694.227 323.692 692.115 323.692C690.925 323.692 689.697 323.71 688.43 323.748C687.163 323.785 685.953 323.823 684.802 323.86C683.65 323.898 682.652 323.954 681.807 324.029V319.307C682.652 319.232 683.535 319.176 684.456 319.138C685.416 319.063 686.395 319.026 687.393 319.026C688.391 318.988 689.351 318.969 690.273 318.969C693.421 318.969 695.993 319.344 697.989 320.094C699.986 320.806 701.464 321.986 702.424 323.635C703.384 325.284 703.864 327.514 703.864 330.325V349.326H699.487ZM689.409 350.113C687.105 350.113 685.109 349.738 683.419 348.989C681.769 348.202 680.482 347.078 679.561 345.616C678.678 344.154 678.236 342.393 678.236 340.332C678.236 338.195 678.716 336.415 679.676 334.991C680.674 333.567 682.114 332.499 683.995 331.787C685.877 331.037 688.142 330.662 690.791 330.662H699.141V334.71H690.56C688.334 334.71 686.625 335.235 685.435 336.284C684.245 337.333 683.65 338.683 683.65 340.332C683.65 341.981 684.245 343.311 685.435 344.323C686.625 345.335 688.334 345.841 690.56 345.841C691.866 345.841 693.114 345.616 694.304 345.166C695.494 344.679 696.473 343.892 697.241 342.805C698.047 341.681 698.489 340.144 698.565 338.195L700.063 340.332C699.871 342.468 699.333 344.267 698.45 345.728C697.606 347.153 696.415 348.239 694.88 348.989C693.382 349.738 691.559 350.113 689.409 350.113Z" fill="white"/>
<path d="M713.816 349.326V308.288H719.345V349.326H713.816ZM709.554 312.561V308.288H719.345V312.561H709.554Z" fill="white"/>
<path d="M747.271 349.551V344.716H759.019C761.284 344.716 763.031 344.098 764.26 342.861C765.527 341.587 766.16 339.901 766.16 337.802C766.16 335.666 765.546 333.998 764.317 332.799C763.089 331.562 761.323 330.944 759.019 330.944H747.271V327.346H758.213C760.9 327.346 763.261 327.664 765.296 328.301C767.369 328.938 768.982 330.007 770.134 331.506C771.324 332.967 771.919 334.972 771.919 337.521V338.308C771.919 340.706 771.42 342.749 770.422 344.435C769.423 346.084 767.907 347.359 765.872 348.258C763.837 349.12 761.284 349.551 758.213 349.551H747.271ZM742.779 349.551V308.064H748.423V349.551H742.779ZM747.271 329.932V326.334H757.464C759.844 326.334 761.591 325.715 762.705 324.479C763.856 323.204 764.432 321.593 764.432 319.644C764.432 317.658 763.856 316.046 762.705 314.809C761.591 313.535 759.844 312.898 757.464 312.898H747.271V308.064H756.485C761.092 308.064 764.528 309.019 766.794 310.931C769.059 312.804 770.191 315.522 770.191 319.082V319.869C770.191 322.38 769.615 324.385 768.464 325.884C767.312 327.346 765.699 328.395 763.626 329.032C761.591 329.632 759.211 329.932 756.485 329.932H747.271Z" fill="white"/>
<path d="M791.229 350.226C787.582 350.226 784.779 349.064 782.821 346.74C780.863 344.417 779.884 341.062 779.884 336.678V319.251H785.413V337.746C785.413 340.107 786.065 341.962 787.371 343.311C788.676 344.623 790.442 345.279 792.669 345.279C794.973 345.279 796.854 344.567 798.313 343.142C799.772 341.681 800.501 339.695 800.501 337.184V319.251H806.03V349.326H801.653V336.453H802.344C802.344 339.413 801.941 341.924 801.135 343.986C800.328 346.009 799.119 347.565 797.506 348.652C795.932 349.701 793.917 350.226 791.46 350.226H791.229Z" fill="white"/>
<path d="M826.275 350.226C822.244 350.226 819.115 349.382 816.888 347.696C814.7 346.009 813.567 343.705 813.491 340.781H818.674C818.75 341.943 819.345 343.049 820.459 344.098C821.611 345.11 823.549 345.616 826.275 345.616C828.732 345.616 830.614 345.147 831.919 344.211C833.224 343.236 833.877 342.056 833.877 340.669C833.877 339.432 833.397 338.476 832.437 337.802C831.478 337.09 829.923 336.621 827.773 336.396L824.433 336.059C821.515 335.759 819.134 334.916 817.291 333.529C815.449 332.105 814.527 330.119 814.527 327.571C814.527 325.659 815.026 324.029 816.024 322.68C817.023 321.293 818.405 320.244 820.171 319.532C821.937 318.782 823.972 318.407 826.275 318.407C829.731 318.407 832.533 319.157 834.683 320.656C836.833 322.155 837.947 324.385 838.023 327.346H832.84C832.802 326.146 832.226 325.135 831.113 324.31C830.038 323.448 828.425 323.017 826.275 323.017C824.125 323.017 822.494 323.448 821.38 324.31C820.267 325.172 819.71 326.259 819.71 327.571C819.71 328.695 820.094 329.594 820.862 330.269C821.668 330.944 822.974 331.375 824.778 331.562L828.118 331.899C831.42 332.236 834.069 333.136 836.065 334.598C838.062 336.022 839.06 338.045 839.06 340.669C839.06 342.543 838.503 344.211 837.39 345.672C836.315 347.096 834.818 348.221 832.898 349.045C830.978 349.832 828.771 350.226 826.275 350.226Z" fill="white"/>
<path d="M848.03 349.326V319.307H853.559V349.326H848.03ZM843.308 323.579V319.307H853.559V323.579H843.308ZM849.585 314.472C848.356 314.472 847.435 314.154 846.821 313.516C846.245 312.879 845.957 312.074 845.957 311.099C845.957 310.125 846.245 309.319 846.821 308.682C847.435 308.045 848.356 307.726 849.585 307.726C850.814 307.726 851.716 308.045 852.292 308.682C852.906 309.319 853.213 310.125 853.213 311.099C853.213 312.074 852.906 312.879 852.292 313.516C851.716 314.154 850.814 314.472 849.585 314.472Z" fill="white"/>
<path d="M863.708 349.326V319.307H868.085V332.18H867.394C867.394 329.22 867.797 326.727 868.603 324.704C869.448 322.642 870.715 321.087 872.404 320.038C874.093 318.951 876.224 318.407 878.797 318.407H879.027C882.905 318.407 885.765 319.588 887.608 321.949C889.489 324.31 890.43 327.72 890.43 332.18V349.326H884.901V331.056C884.901 328.732 884.229 326.877 882.885 325.491C881.542 324.066 879.699 323.354 877.357 323.354C874.938 323.354 872.98 324.085 871.483 325.547C869.985 327.008 869.237 328.957 869.237 331.393V349.326H863.708Z" fill="white"/>
<path d="M913.078 350.338C910.39 350.338 908.068 349.888 906.11 348.989C904.151 348.089 902.558 346.909 901.33 345.447C900.101 343.948 899.18 342.28 898.565 340.444C897.989 338.608 897.702 336.734 897.702 334.822V333.811C897.702 331.862 897.989 329.969 898.565 328.133C899.18 326.296 900.101 324.647 901.33 323.186C902.558 321.687 904.113 320.506 905.994 319.644C907.914 318.745 910.16 318.295 912.732 318.295C916.072 318.295 918.817 319.007 920.967 320.431C923.156 321.818 924.768 323.617 925.805 325.828C926.88 328.039 927.417 330.4 927.417 332.911V335.328H900.12V331.281H923.386L922.119 333.473C922.119 331.337 921.774 329.501 921.083 327.964C920.392 326.39 919.355 325.172 917.973 324.31C916.591 323.448 914.844 323.017 912.732 323.017C910.544 323.017 908.72 323.504 907.261 324.479C905.841 325.453 904.766 326.784 904.036 328.47C903.345 330.156 903 332.105 903 334.316C903 336.453 903.345 338.383 904.036 340.107C904.766 341.793 905.879 343.142 907.376 344.154C908.874 345.129 910.774 345.616 913.078 345.616C915.497 345.616 917.455 345.091 918.952 344.042C920.488 342.993 921.409 341.775 921.716 340.388H926.899C926.477 342.449 925.632 344.229 924.365 345.728C923.098 347.227 921.505 348.371 919.585 349.158C917.666 349.945 915.497 350.338 913.078 350.338Z" fill="white"/>
<path d="M944.805 350.226C940.774 350.226 937.645 349.382 935.418 347.696C933.23 346.009 932.097 343.705 932.021 340.781H937.204C937.28 341.943 937.875 343.049 938.989 344.098C940.141 345.11 942.079 345.616 944.805 345.616C947.262 345.616 949.144 345.147 950.449 344.211C951.754 343.236 952.407 342.056 952.407 340.669C952.407 339.432 951.927 338.476 950.967 337.802C950.008 337.09 948.453 336.621 946.303 336.396L942.962 336.059C940.045 335.759 937.664 334.916 935.821 333.529C933.979 332.105 933.057 330.119 933.057 327.571C933.057 325.659 933.556 324.029 934.554 322.68C935.553 321.293 936.935 320.244 938.701 319.532C940.467 318.782 942.502 318.407 944.805 318.407C948.261 318.407 951.063 319.157 953.213 320.656C955.363 322.155 956.477 324.385 956.553 327.346H951.37C951.332 326.146 950.756 325.135 949.643 324.31C948.568 323.448 946.955 323.017 944.805 323.017C942.655 323.017 941.024 323.448 939.91 324.31C938.797 325.172 938.24 326.259 938.24 327.571C938.24 328.695 938.624 329.594 939.392 330.269C940.198 330.944 941.504 331.375 943.308 331.562L946.648 331.899C949.95 332.236 952.599 333.136 954.595 334.598C956.592 336.022 957.59 338.045 957.59 340.669C957.59 342.543 957.033 344.211 955.92 345.672C954.845 347.096 953.348 348.221 951.428 349.045C949.508 349.832 947.301 350.226 944.805 350.226Z" fill="white"/>
<path d="M975.141 350.226C971.11 350.226 967.981 349.382 965.754 347.696C963.565 346.009 962.433 343.705 962.356 340.781H967.539C967.616 341.943 968.211 343.049 969.324 344.098C970.476 345.11 972.415 345.616 975.141 345.616C977.598 345.616 979.479 345.147 980.784 344.211C982.09 343.236 982.743 342.056 982.743 340.669C982.743 339.432 982.263 338.476 981.303 337.802C980.343 337.09 978.788 336.621 976.638 336.396L973.298 336.059C970.38 335.759 968 334.916 966.157 333.529C964.314 332.105 963.393 330.119 963.393 327.571C963.393 325.659 963.892 324.029 964.89 322.68C965.888 321.293 967.27 320.244 969.036 319.532C970.802 318.782 972.837 318.407 975.141 318.407C978.596 318.407 981.399 319.157 983.549 320.656C985.699 322.155 986.812 324.385 986.889 327.346H981.706C981.668 326.146 981.092 325.135 979.978 324.31C978.903 323.448 977.291 323.017 975.141 323.017C972.991 323.017 971.359 323.448 970.246 324.31C969.132 325.172 968.576 326.259 968.576 327.571C968.576 328.695 968.96 329.594 969.727 330.269C970.534 330.944 971.839 331.375 973.643 331.562L976.984 331.899C980.285 332.236 982.934 333.136 984.931 334.598C986.927 336.022 987.926 338.045 987.926 340.669C987.926 342.543 987.369 344.211 986.255 345.672C985.18 347.096 983.683 348.221 981.763 349.045C979.844 349.832 977.636 350.226 975.141 350.226Z" fill="white"/>
<path d="M1022.42 350.338C1018.92 350.338 1015.95 349.776 1013.49 348.652C1011.03 347.527 1009.15 345.972 1007.85 343.986C1006.54 341.999 1005.89 339.751 1005.89 337.24H1011.53C1011.53 338.476 1011.86 339.713 1012.51 340.95C1013.2 342.187 1014.34 343.217 1015.91 344.042C1017.52 344.866 1019.69 345.279 1022.42 345.279C1024.95 345.279 1027.02 344.923 1028.64 344.211C1030.25 343.461 1031.44 342.505 1032.21 341.344C1032.97 340.144 1033.36 338.851 1033.36 337.465C1033.36 335.778 1032.61 334.391 1031.11 333.305C1029.62 332.18 1027.43 331.487 1024.55 331.225L1019.88 330.831C1016.16 330.531 1013.18 329.407 1010.96 327.458C1008.73 325.509 1007.62 322.942 1007.62 319.756C1007.62 317.246 1008.23 315.053 1009.46 313.179C1010.73 311.305 1012.47 309.844 1014.7 308.794C1016.93 307.707 1019.52 307.164 1022.47 307.164C1025.39 307.164 1027.96 307.689 1030.19 308.738C1032.42 309.787 1034.15 311.268 1035.37 313.179C1036.64 315.053 1037.27 317.302 1037.27 319.925H1031.63C1031.63 318.613 1031.3 317.377 1030.65 316.215C1030.04 315.053 1029.06 314.097 1027.72 313.348C1026.37 312.598 1024.62 312.224 1022.47 312.224C1020.4 312.224 1018.67 312.58 1017.29 313.292C1015.95 314.004 1014.93 314.941 1014.24 316.102C1013.59 317.227 1013.26 318.445 1013.26 319.756C1013.26 321.256 1013.86 322.586 1015.05 323.748C1016.24 324.91 1018 325.584 1020.34 325.772L1025.01 326.165C1027.89 326.39 1030.36 326.99 1032.44 327.964C1034.55 328.901 1036.16 330.175 1037.27 331.787C1038.43 333.361 1039 335.253 1039 337.465C1039 339.976 1038.31 342.205 1036.93 344.154C1035.55 346.103 1033.61 347.621 1031.11 348.708C1028.62 349.795 1025.72 350.338 1022.42 350.338Z" fill="white"/>
<path d="M1060.2 350.338C1057.51 350.338 1055.19 349.888 1053.23 348.989C1051.27 348.089 1049.68 346.909 1048.45 345.447C1047.22 343.948 1046.3 342.28 1045.69 340.444C1045.11 338.608 1044.82 336.734 1044.82 334.822V333.811C1044.82 331.862 1045.11 329.969 1045.69 328.133C1046.3 326.296 1047.22 324.647 1048.45 323.186C1049.68 321.687 1051.24 320.506 1053.12 319.644C1055.04 318.745 1057.28 318.295 1059.85 318.295C1063.19 318.295 1065.94 319.007 1068.09 320.431C1070.28 321.818 1071.89 323.617 1072.93 325.828C1074 328.039 1074.54 330.4 1074.54 332.911V335.328H1047.24V331.281H1070.51L1069.24 333.473C1069.24 331.337 1068.9 329.501 1068.2 327.964C1067.51 326.39 1066.48 325.172 1065.09 324.31C1063.71 323.448 1061.97 323.017 1059.85 323.017C1057.67 323.017 1055.84 323.504 1054.38 324.479C1052.96 325.453 1051.89 326.784 1051.16 328.47C1050.47 330.156 1050.12 332.105 1050.12 334.316C1050.12 336.453 1050.47 338.383 1051.16 340.107C1051.89 341.793 1053 343.142 1054.5 344.154C1056 345.129 1057.9 345.616 1060.2 345.616C1062.62 345.616 1064.58 345.091 1066.07 344.042C1067.61 342.993 1068.53 341.775 1068.84 340.388H1074.02C1073.6 342.449 1072.75 344.229 1071.49 345.728C1070.22 347.227 1068.63 348.371 1066.71 349.158C1064.79 349.945 1062.62 350.338 1060.2 350.338Z" fill="white"/>
<path d="M1081.85 349.326V319.307H1086.23V331.674H1086C1086 327.289 1086.97 324.085 1088.93 322.061C1090.93 320 1093.9 318.969 1097.86 318.969H1098.9V323.804H1096.94C1093.87 323.804 1091.5 324.61 1089.85 326.221C1088.2 327.795 1087.38 330.082 1087.38 333.08V349.326H1081.85Z" fill="white"/>
<path d="M1112.51 349.326L1102.03 319.307H1107.78L1118.04 349.326H1112.51ZM1113.89 349.326V345.054H1120.57V349.326H1113.89ZM1116.54 349.326L1125.46 319.307H1130.88L1121.78 349.326H1116.54Z" fill="white"/>
<path d="M1139.07 349.326V319.307H1144.6V349.326H1139.07ZM1134.35 323.579V319.307H1144.6V323.579H1134.35ZM1140.62 314.472C1139.39 314.472 1138.47 314.154 1137.86 313.516C1137.28 312.879 1137 312.074 1137 311.099C1137 310.125 1137.28 309.319 1137.86 308.682C1138.47 308.045 1139.39 307.726 1140.62 307.726C1141.85 307.726 1142.75 308.045 1143.33 308.682C1143.94 309.319 1144.25 310.125 1144.25 311.099C1144.25 312.074 1143.94 312.879 1143.33 313.516C1142.75 314.154 1141.85 314.472 1140.62 314.472Z" fill="white"/>
<path d="M1167.93 350.338C1165.29 350.338 1162.98 349.888 1161.02 348.989C1159.1 348.089 1157.51 346.89 1156.24 345.391C1154.98 343.855 1154.02 342.168 1153.36 340.332C1152.75 338.495 1152.44 336.659 1152.44 334.822V333.811C1152.44 331.899 1152.75 330.025 1153.36 328.189C1154.02 326.353 1154.98 324.704 1156.24 323.242C1157.55 321.743 1159.16 320.544 1161.08 319.644C1163 318.745 1165.25 318.295 1167.82 318.295C1170.39 318.295 1172.7 318.763 1174.73 319.7C1176.8 320.637 1178.45 321.968 1179.68 323.692C1180.95 325.378 1181.66 327.383 1181.81 329.707H1176.52C1176.25 327.833 1175.36 326.278 1173.87 325.041C1172.37 323.767 1170.35 323.129 1167.82 323.129C1165.63 323.129 1163.81 323.617 1162.35 324.591C1160.89 325.565 1159.8 326.896 1159.07 328.582C1158.34 330.269 1157.97 332.18 1157.97 334.316C1157.97 336.378 1158.34 338.27 1159.07 339.994C1159.8 341.681 1160.89 343.03 1162.35 344.042C1163.85 345.016 1165.71 345.504 1167.93 345.504C1169.66 345.504 1171.16 345.204 1172.43 344.604C1173.69 344.004 1174.71 343.199 1175.48 342.187C1176.25 341.175 1176.71 340.032 1176.86 338.758H1182.16C1182.04 341.119 1181.33 343.161 1180.03 344.885C1178.76 346.609 1177.07 347.958 1174.96 348.933C1172.89 349.87 1170.55 350.338 1167.93 350.338Z" fill="white"/>
<path d="M1202.2 350.338C1199.52 350.338 1197.19 349.888 1195.24 348.989C1193.28 348.089 1191.68 346.909 1190.46 345.447C1189.23 343.948 1188.31 342.28 1187.69 340.444C1187.12 338.608 1186.83 336.734 1186.83 334.822V333.811C1186.83 331.862 1187.12 329.969 1187.69 328.133C1188.31 326.296 1189.23 324.647 1190.46 323.186C1191.68 321.687 1193.24 320.506 1195.12 319.644C1197.04 318.745 1199.29 318.295 1201.86 318.295C1205.2 318.295 1207.94 319.007 1210.09 320.431C1212.28 321.818 1213.89 323.617 1214.93 325.828C1216.01 328.039 1216.54 330.4 1216.54 332.911V335.328H1189.25V331.281H1212.51L1211.25 333.473C1211.25 331.337 1210.9 329.501 1210.21 327.964C1209.52 326.39 1208.48 325.172 1207.1 324.31C1205.72 323.448 1203.97 323.017 1201.86 323.017C1199.67 323.017 1197.85 323.504 1196.39 324.479C1194.97 325.453 1193.89 326.784 1193.16 328.47C1192.47 330.156 1192.13 332.105 1192.13 334.316C1192.13 336.453 1192.47 338.383 1193.16 340.107C1193.89 341.793 1195.01 343.142 1196.5 344.154C1198 345.129 1199.9 345.616 1202.2 345.616C1204.62 345.616 1206.58 345.091 1208.08 344.042C1209.61 342.993 1210.54 341.775 1210.84 340.388H1216.03C1215.6 342.449 1214.76 344.229 1213.49 345.728C1212.22 347.227 1210.63 348.371 1208.71 349.158C1206.79 349.945 1204.62 350.338 1202.2 350.338Z" fill="white"/>
<path d="M1233.93 350.226C1229.9 350.226 1226.77 349.382 1224.54 347.696C1222.36 346.009 1221.22 343.705 1221.15 340.781H1226.33C1226.41 341.943 1227 343.049 1228.12 344.098C1229.27 345.11 1231.21 345.616 1233.93 345.616C1236.39 345.616 1238.27 345.147 1239.58 344.211C1240.88 343.236 1241.53 342.056 1241.53 340.669C1241.53 339.432 1241.05 338.476 1240.09 337.802C1239.13 337.09 1237.58 336.621 1235.43 336.396L1232.09 336.059C1229.17 335.759 1226.79 334.916 1224.95 333.529C1223.1 332.105 1222.18 330.119 1222.18 327.571C1222.18 325.659 1222.68 324.029 1223.68 322.68C1224.68 321.293 1226.06 320.244 1227.83 319.532C1229.59 318.782 1231.63 318.407 1233.93 318.407C1237.39 318.407 1240.19 319.157 1242.34 320.656C1244.49 322.155 1245.6 324.385 1245.68 327.346H1240.5C1240.46 326.146 1239.88 325.135 1238.77 324.31C1237.69 323.448 1236.08 323.017 1233.93 323.017C1231.78 323.017 1230.15 323.448 1229.04 324.31C1227.92 325.172 1227.37 326.259 1227.37 327.571C1227.37 328.695 1227.75 329.594 1228.52 330.269C1229.32 330.944 1230.63 331.375 1232.43 331.562L1235.77 331.899C1239.08 332.236 1241.73 333.136 1243.72 334.598C1245.72 336.022 1246.72 338.045 1246.72 340.669C1246.72 342.543 1246.16 344.211 1245.05 345.672C1243.97 347.096 1242.47 348.221 1240.55 349.045C1238.63 349.832 1236.43 350.226 1233.93 350.226Z" fill="white"/>
</g>
<path d="M1423.91 249.19C1416.65 249.19 1410.44 247.962 1405.28 245.507C1400.2 243.052 1396.1 239.86 1392.98 235.932C1389.85 232.003 1387.57 227.759 1386.11 223.2C1384.66 218.57 1383.94 214.116 1383.94 209.837V207.522C1383.94 202.892 1384.66 198.262 1386.11 193.632C1387.64 189.002 1389.96 184.794 1393.09 181.006C1396.21 177.218 1400.27 174.166 1405.28 171.851C1410.29 169.536 1416.28 168.379 1423.25 168.379C1430.37 168.379 1436.47 169.571 1441.55 171.956C1446.63 174.342 1450.66 177.674 1453.64 181.953C1456.62 186.232 1458.43 191.282 1459.09 197.105H1448.19C1447.61 192.755 1446.16 189.178 1443.84 186.372C1441.51 183.496 1438.57 181.356 1435.02 179.953C1431.53 178.55 1427.61 177.849 1423.25 177.849C1418.53 177.849 1414.4 178.656 1410.84 180.269C1407.28 181.812 1404.3 184.022 1401.91 186.898C1399.58 189.704 1397.8 192.966 1396.57 196.684C1395.41 200.402 1394.83 204.435 1394.83 208.784C1394.83 212.923 1395.41 216.851 1396.57 220.569C1397.8 224.287 1399.62 227.584 1402.02 230.46C1404.48 233.336 1407.53 235.616 1411.16 237.3C1414.8 238.913 1419.04 239.72 1423.91 239.72C1430.73 239.72 1436.47 238.071 1441.12 234.774C1445.76 231.477 1448.59 226.707 1449.61 220.464H1460.5C1459.78 225.725 1457.92 230.53 1454.95 234.879C1452.04 239.229 1447.98 242.701 1442.75 245.296C1437.59 247.892 1431.31 249.19 1423.91 249.19Z" fill="#25E305"/>
<path d="M1473.78 247.296V191.107H1482.06V214.256H1481.62C1481.62 206.049 1483.47 200.051 1487.18 196.263C1490.95 192.405 1496.58 190.476 1504.06 190.476H1506.02V199.525H1502.32C1496.51 199.525 1492.04 201.033 1488.92 204.049C1485.8 206.996 1484.24 211.275 1484.24 216.886V247.296H1473.78Z" fill="#25E305"/>
<path d="M1541.88 249.19C1536.8 249.19 1532.41 248.348 1528.7 246.664C1525 244.981 1521.99 242.771 1519.67 240.035C1517.34 237.229 1515.6 234.108 1514.44 230.671C1513.35 227.233 1512.8 223.726 1512.8 220.148V218.254C1512.8 214.607 1513.35 211.064 1514.44 207.627C1515.6 204.19 1517.34 201.103 1519.67 198.367C1521.99 195.561 1524.93 193.352 1528.49 191.738C1532.12 190.055 1536.37 189.213 1541.23 189.213C1547.55 189.213 1552.74 190.546 1556.8 193.211C1560.94 195.807 1563.99 199.174 1565.95 203.313C1567.99 207.451 1569 211.871 1569 216.571V221.095H1517.38V213.519H1561.38L1558.98 217.623C1558.98 213.625 1558.33 210.187 1557.02 207.311C1555.72 204.365 1553.75 202.085 1551.14 200.472C1548.53 198.858 1545.22 198.052 1541.23 198.052C1537.09 198.052 1533.64 198.964 1530.88 200.787C1528.2 202.611 1526.16 205.102 1524.78 208.258C1523.48 211.415 1522.82 215.063 1522.82 219.201C1522.82 223.2 1523.48 226.812 1524.78 230.039C1526.16 233.196 1528.27 235.721 1531.1 237.615C1533.93 239.439 1537.53 240.351 1541.88 240.351C1546.46 240.351 1550.16 239.369 1552.99 237.405C1555.9 235.441 1557.64 233.161 1558.22 230.565H1568.02C1567.22 234.423 1565.63 237.756 1563.23 240.561C1560.83 243.367 1557.82 245.507 1554.19 246.98C1550.56 248.453 1546.46 249.19 1541.88 249.19Z" fill="#25E305"/>
<path d="M1607.48 249.19C1603.34 249.19 1599.53 248.453 1596.05 246.98C1592.56 245.507 1589.51 243.438 1586.9 240.772C1584.36 238.106 1582.36 235.02 1580.91 231.512C1579.53 228.005 1578.84 224.217 1578.84 220.148V218.254C1578.84 214.256 1579.53 210.503 1580.91 206.996C1582.29 203.488 1584.21 200.402 1586.68 197.736C1589.22 195.07 1592.2 193.001 1595.61 191.528C1599.1 189.985 1602.94 189.213 1607.15 189.213C1611.58 189.213 1615.61 190.125 1619.24 191.949C1622.87 193.702 1625.85 196.473 1628.18 200.261C1630.5 204.049 1631.81 208.96 1632.1 214.992L1627.74 208.258V170.483H1638.19V247.296H1629.92V222.358H1632.97C1632.68 228.741 1631.3 233.932 1628.83 237.931C1626.36 241.859 1623.24 244.735 1619.46 246.559C1615.76 248.313 1611.77 249.19 1607.48 249.19ZM1608.9 240.351C1612.46 240.351 1615.69 239.579 1618.59 238.036C1621.5 236.493 1623.82 234.283 1625.56 231.407C1627.3 228.461 1628.18 225.024 1628.18 221.095V216.255C1628.18 212.397 1627.27 209.135 1625.45 206.469C1623.71 203.734 1621.35 201.664 1618.37 200.261C1615.47 198.788 1612.27 198.052 1608.79 198.052C1604.94 198.052 1601.53 198.928 1598.55 200.682C1595.65 202.436 1593.36 204.891 1591.69 208.048C1590.09 211.204 1589.29 214.922 1589.29 219.201C1589.29 223.48 1590.13 227.233 1591.8 230.46C1593.47 233.617 1595.79 236.072 1598.77 237.826C1601.75 239.509 1605.12 240.351 1608.9 240.351Z" fill="#25E305"/>
<path d="M1660.46 247.296V191.107H1670.92V247.296H1660.46ZM1651.53 199.104V191.107H1670.92V199.104H1651.53ZM1663.4 182.058C1661.08 182.058 1659.34 181.462 1658.18 180.269C1657.09 179.077 1656.54 177.568 1656.54 175.744C1656.54 173.921 1657.09 172.412 1658.18 171.22C1659.34 170.027 1661.08 169.431 1663.4 169.431C1665.73 169.431 1667.43 170.027 1668.52 171.22C1669.68 172.412 1670.26 173.921 1670.26 175.744C1670.26 177.568 1669.68 179.077 1668.52 180.269C1667.43 181.462 1665.73 182.058 1663.4 182.058Z" fill="#25E305"/>
<path d="M1713.13 247.927C1708.78 247.927 1705 247.331 1701.81 246.138C1698.69 244.946 1696.25 242.911 1694.51 240.035C1692.84 237.089 1692.01 233.126 1692.01 228.145V174.061H1702.03V229.408C1702.03 232.424 1702.86 234.774 1704.53 236.458C1706.27 238.071 1708.71 238.878 1711.83 238.878H1722.07V247.927H1713.13ZM1681.99 198.683V191.107H1722.07V198.683H1681.99Z" fill="#25E305"/>
<path d="M1815.66 247.296V170.483H1826.33V247.296H1815.66ZM1761.85 247.296V170.483H1772.53V247.296H1761.85ZM1770.35 213.73V204.47H1817.83V213.73H1770.35Z" fill="#25E305"/>
<path d="M1871.93 249.19C1866.85 249.19 1862.46 248.348 1858.75 246.664C1855.05 244.981 1852.04 242.771 1849.71 240.035C1847.39 237.229 1845.65 234.108 1844.49 230.671C1843.4 227.233 1842.85 223.726 1842.85 220.148V218.254C1842.85 214.607 1843.4 211.064 1844.49 207.627C1845.65 204.19 1847.39 201.103 1849.71 198.367C1852.04 195.561 1854.98 193.352 1858.54 191.738C1862.17 190.055 1866.41 189.213 1871.28 189.213C1877.6 189.213 1882.79 190.546 1886.85 193.211C1890.99 195.807 1894.04 199.174 1896 203.313C1898.03 207.451 1899.05 211.871 1899.05 216.571V221.095H1847.43V213.519H1891.43L1889.03 217.623C1889.03 213.625 1888.38 210.187 1887.07 207.311C1885.76 204.365 1883.8 202.085 1881.19 200.472C1878.58 198.858 1875.27 198.052 1871.28 198.052C1867.14 198.052 1863.69 198.964 1860.93 200.787C1858.25 202.611 1856.21 205.102 1854.83 208.258C1853.53 211.415 1852.87 215.063 1852.87 219.201C1852.87 223.2 1853.53 226.812 1854.83 230.039C1856.21 233.196 1858.32 235.721 1861.15 237.615C1863.98 239.439 1867.58 240.351 1871.93 240.351C1876.51 240.351 1880.21 239.369 1883.04 237.405C1885.95 235.441 1887.69 233.161 1888.27 230.565H1898.07C1897.27 234.423 1895.67 237.756 1893.28 240.561C1890.88 243.367 1887.87 245.507 1884.24 246.98C1880.61 248.453 1876.51 249.19 1871.93 249.19Z" fill="#25E305"/>
<path d="M1948.42 247.296V230.46H1946.68V210.994C1946.68 207.136 1945.63 204.225 1943.52 202.261C1941.49 200.296 1938.47 199.314 1934.48 199.314C1932.23 199.314 1929.91 199.349 1927.51 199.42C1925.11 199.49 1922.83 199.56 1920.65 199.63C1918.47 199.7 1916.58 199.805 1914.99 199.946V191.107C1916.58 190.967 1918.25 190.861 1920 190.791C1921.81 190.651 1923.66 190.581 1925.55 190.581C1927.44 190.511 1929.25 190.476 1931 190.476C1936.95 190.476 1941.81 191.177 1945.59 192.58C1949.37 193.913 1952.16 196.123 1953.98 199.209C1955.79 202.296 1956.7 206.469 1956.7 211.731V247.296H1948.42ZM1929.36 248.769C1925.01 248.769 1921.23 248.067 1918.04 246.664C1914.91 245.191 1912.48 243.087 1910.74 240.351C1909.07 237.615 1908.23 234.318 1908.23 230.46C1908.23 226.462 1909.14 223.13 1910.96 220.464C1912.84 217.798 1915.57 215.799 1919.12 214.466C1922.68 213.063 1926.97 212.362 1931.98 212.362H1947.77V219.938H1931.54C1927.33 219.938 1924.1 220.92 1921.85 222.884C1919.6 224.848 1918.47 227.374 1918.47 230.46C1918.47 233.547 1919.6 236.037 1921.85 237.931C1924.1 239.825 1927.33 240.772 1931.54 240.772C1934.01 240.772 1936.37 240.351 1938.62 239.509C1940.87 238.597 1942.72 237.124 1944.17 235.09C1945.7 232.985 1946.53 230.109 1946.68 226.462L1949.51 230.46C1949.15 234.459 1948.13 237.826 1946.46 240.561C1944.86 243.227 1942.61 245.261 1939.71 246.664C1936.88 248.067 1933.43 248.769 1929.36 248.769Z" fill="#25E305"/>
<path d="M1975.89 247.296V170.483H1986.34V247.296H1975.89ZM1967.83 178.48V170.483H1986.34V178.48H1967.83Z" fill="#25E305"/>
<path d="M2028.4 247.927C2024.04 247.927 2020.27 247.331 2017.07 246.138C2013.95 244.946 2011.52 242.911 2009.78 240.035C2008.11 237.089 2007.27 233.126 2007.27 228.145V174.061H2017.29V229.408C2017.29 232.424 2018.13 234.774 2019.79 236.458C2021.54 238.071 2023.97 238.878 2027.09 238.878H2037.33V247.927H2028.4ZM1997.25 198.683V191.107H2037.33V198.683H1997.25Z" fill="#25E305"/>
<path d="M2051.46 247.296V170.483H2061.92V216.36H2059.31C2059.31 210.819 2060.03 206.049 2061.48 202.05C2063.01 197.981 2065.33 194.86 2068.45 192.685C2071.58 190.511 2075.57 189.423 2080.44 189.423H2080.87C2087.84 189.423 2093.11 191.668 2096.66 196.158C2100.22 200.577 2102 206.925 2102 215.203V247.296H2091.54V213.098C2091.54 208.539 2090.2 204.996 2087.51 202.471C2084.9 199.946 2081.49 198.683 2077.28 198.683C2072.63 198.683 2068.89 200.191 2066.06 203.208C2063.3 206.154 2061.92 210.047 2061.92 214.887V247.296H2051.46Z" fill="#25E305"/>
</svg>
